<svg xmlns="http://www.w3.org/2000/svg" viewBox="0 0 797.93 592.22"><defs><style>.cls-1{fill:#cadbe0;}.cls-17,.cls-2{fill:#fff;}.cls-3{fill:#4c2e3c;}.cls-16,.cls-4,.cls-5,.cls-7,.cls-9{fill:#9ebae1;}.cls-4{opacity:0.2;}.cls-5{opacity:0.76;}.cls-6,.cls-8{fill:#7097c4;}.cls-7,.cls-8{opacity:0.53;}.cls-10{fill:#f5f5ff;}.cls-11{fill:#f29e9b;}.cls-12,.cls-13,.cls-15{fill:none;}.cls-12{stroke:#fff;stroke-width:1.85px;}.cls-12,.cls-13,.cls-16,.cls-17{stroke-miterlimit:10;}.cls-13,.cls-15,.cls-16,.cls-17{stroke:#4c2e3c;stroke-width:1.5px;}.cls-14{fill:#ffbe83;}.cls-15{stroke-linecap:round;stroke-linejoin:round;}</style></defs><g id="Layer_2" data-name="Layer 2"><g id="Layer_1-2" data-name="Layer 1"><path class="cls-1" d="M788.36,323.27c11.86-72.31,21.41-150.88-27.3-214.08-14.61-19-33.36-38-56.67-47.13C675.11,50.57,644,47.64,612.42,48A567.7,567.7,0,0,0,440.26,76.5c-39.95,13.22-79.1,31.08-121.38,33.81-71.61,4.61-144.79-34.74-212.78-13.22C70,108.53,41.52,136.29,24.76,168.33S1.93,236.44.44,272.08c-3.56,85.17,14.38,174.28,54.91,251.33,19.26,36.6,59.26,59.81,103.08,59.81H614c44.86,0,85.59-24.31,104.3-62.21.09-.19.18-.37.28-.56C749,458.74,777.31,390.61,788.36,323.27Z"/><rect class="cls-2" x="89.25" y="14.62" width="400.8" height="291.23"/><path class="cls-3" d="M490.63,306.43h-402V14h402Zm-400.8-1.16H489.47V15.2H89.83Z"/><rect class="cls-4" x="89.79" y="14.62" width="399.73" height="13.07"/><rect class="cls-2" x="71.77" y="0.58" width="435.75" height="15.73"/><path class="cls-3" d="M508.11,16.89H71.19V0H508.11ZM72.36,15.73H507V1.16H72.36Z"/><rect class="cls-5" x="169.55" y="172.68" width="29.14" height="57.14"/><rect class="cls-6" x="217.3" y="144.79" width="29.14" height="85.03"/><rect class="cls-7" x="265.06" y="161.5" width="29.14" height="68.32"/><rect class="cls-8" x="312.81" y="124.94" width="29.14" height="104.88"/><rect class="cls-9" x="360.56" y="77.2" width="29.14" height="152.62"/><path class="cls-9" d="M470.19,79.55H416a6.07,6.07,0,0,1-6.07-6.06V42A6.07,6.07,0,0,1,416,35.94h54.22A6.07,6.07,0,0,1,476.25,42V73.49A6.07,6.07,0,0,1,470.19,79.55ZM416,37.1a4.9,4.9,0,0,0-4.9,4.9V73.49a4.9,4.9,0,0,0,4.9,4.9h54.22a4.91,4.91,0,0,0,4.9-4.9V42a4.91,4.91,0,0,0-4.9-4.9Z"/><rect class="cls-9" x="419.84" y="45.26" width="46.48" height="1.16"/><rect class="cls-9" x="419.84" y="53.2" width="33.5" height="1.16"/><rect class="cls-9" x="419.84" y="61.14" width="40.86" height="1.16"/><rect class="cls-9" x="419.84" y="69.08" width="46.48" height="1.16"/><path class="cls-9" d="M161.52,293.52H102.64v-36h58.88Zm-57.72-1.16h56.55v-33.7H103.8Z"/><rect class="cls-10" x="109.08" y="266.69" width="46" height="1.16"/><rect class="cls-10" x="109.08" y="274.93" width="46" height="1.16"/><rect class="cls-10" x="109.08" y="283.16" width="46" height="1.16"/><polygon class="cls-9" points="142.92 284.39 135.08 277.91 127.49 284.31 122.76 275.26 118.57 284.06 108.43 266.55 109.44 265.97 118.47 281.57 122.71 272.66 127.85 282.49 135.08 276.4 142.34 282.41 147.86 265.41 153.79 283.36 152.69 283.73 147.87 269.14 142.92 284.39"/><rect class="cls-2" x="151.44" y="332.22" width="13.3" height="239.89"/><path class="cls-3" d="M165.33,572.61H150.86V331.73h14.47Zm-13.31-1h12.15V332.72H152Z"/><rect class="cls-2" x="414.55" y="332.22" width="13.3" height="239.89"/><path class="cls-3" d="M428.44,572.61H414V331.73h14.47Zm-13.31-1h12.15V332.72H415.13Z"/><rect class="cls-2" x="84.97" y="324.23" width="410.24" height="11.04"/><path class="cls-3" d="M495.71,335.85H84.47v-12.2H495.71ZM85.47,334.69H494.71v-9.87H85.47Z"/><path class="cls-11" d="M598.07,530.65l3.58,19.77a2.56,2.56,0,0,0,2.52,2.11h17.89a2.57,2.57,0,0,0,2.53-3l-3.5-20.79a2.57,2.57,0,0,0-2.67-2.14l-18,1A2.57,2.57,0,0,0,598.07,530.65Z"/><path class="cls-6" d="M590.6,549.36h38.6a2.56,2.56,0,0,1,2.51,2l7.91,37.73a2.57,2.57,0,0,1-2.51,3.09H562.06a4.91,4.91,0,0,1-2.43-9.18l28.91-16.48a2.57,2.57,0,0,0,1.27-2.61l-1.75-11.64A2.57,2.57,0,0,1,590.6,549.36Z"/><line class="cls-12" x1="557.78" y1="584.66" x2="638.32" y2="584.66"/><path class="cls-13" d="M586,568.14a2.56,2.56,0,0,0,1-3.94c-3.63-4.68-12.32-13.74-21.21-7.46C555,564.4,573,573.55,586,568.14Z"/><path class="cls-13" d="M591.68,568.14a2.56,2.56,0,0,1-1-3.94c3.63-4.68,12.32-13.74,21.21-7.46C622.71,564.4,604.74,573.55,591.68,568.14Z"/><path class="cls-9" d="M618.83,275.12l14.72,254.93a2.56,2.56,0,0,1-2.55,2.71H587.12a2.57,2.57,0,0,1-2.53-2.11L538.92,275.72a2.57,2.57,0,0,1,2.52-3h74.83A2.56,2.56,0,0,1,618.83,275.12Z"/><polygon class="cls-11" points="519.44 524.96 518.13 550.06 540.58 555.34 542.28 528.98 519.44 524.96"/><path class="cls-6" d="M502.63,549.36h43.66l9,42.86h-78.4a4.86,4.86,0,0,1-2.41-9.08l30.62-17.45Z"/><line class="cls-12" x1="471.81" y1="584.66" x2="553.32" y2="584.66"/><path class="cls-13" d="M503.87,566.69s-11.33-18.19-23-10S490.83,574.92,503.87,566.69Z"/><path class="cls-13" d="M503.87,566.69s11.32-18.19,23-10S516.91,574.92,503.87,566.69Z"/><polygon class="cls-9" points="581.71 281.7 557.57 532.76 508.83 532.76 524.45 269.8 581.71 281.7"/><line class="cls-13" x1="567.61" y1="435.85" x2="546.82" y2="319.81"/><path class="cls-11" d="M520.47,199.28c-21.91-24.31-50.62-64.82-50.62-64.82l-17.91,9.07,40.41,77.35a17.79,17.79,0,0,0,27.44,2.92h0A17.78,17.78,0,0,0,520.47,199.28Z"/><circle class="cls-11" cx="455.62" cy="133.64" r="16.41" transform="matrix(0.17, -0.99, 0.99, 0.17, 248.36, 560.83)"/><path class="cls-3" d="M423.89,107.33l3.93,4.5,40,16.13a2.76,2.76,0,0,0,2.07-5.12l-40-16.13Z"/><path class="cls-11" d="M457.05,117.3s3.9-6.39,10.08-.39,10.84,17.16-.65,29Z"/><path class="cls-11" d="M566.56,169.2l-40.93,56.34a16.74,16.74,0,0,1-20.29,5.35h0a15.77,15.77,0,0,1-7.45-22.42l34.85-59.72Z"/><path class="cls-2" d="M561.68,175l-13.14,25.33-41-26.14,17.32-22.43c5.79-7.64,15.33-10.18,26.59-8l-1.71.64A21.83,21.83,0,0,1,561.68,175Z"/><path class="cls-2" d="M550.9,143.58l61.35,0c9,0,1.54,6.84,2.49,15.84l9.46,124.32L524,275.46l9.29-115.76A17.68,17.68,0,0,1,550.9,143.58Z"/><line class="cls-13" x1="530.97" y1="188.62" x2="533.29" y2="159.7"/><polygon class="cls-2" points="641.47 233.47 617.93 277.04 563.32 247.17 586.86 203.6 641.47 233.47"/><path class="cls-3" d="M642.25,233.24l-24.08,44.59-.52-.28L562.54,247.4l24.08-44.59.52.28Zm-24.55,43,23-42.55-53.59-29.31-23,42.54Z"/><line class="cls-2" x1="584.5" y1="242.58" x2="596.34" y2="220.02"/><path class="cls-3" d="M596.91,220.12a.49.49,0,0,1-.06.17L585,242.85a.57.57,0,0,1-.78.25.58.58,0,0,1-.25-.79l11.84-22.56a.58.58,0,0,1,1.09.37Z"/><line class="cls-2" x1="593.08" y1="242.94" x2="600.67" y2="228.12"/><path class="cls-3" d="M601.24,228.21a.34.34,0,0,1,0,.17l-7.6,14.83a.58.58,0,1,1-1-.53l7.59-14.83a.59.59,0,0,1,.79-.25A.56.56,0,0,1,601.24,228.21Z"/><rect class="cls-3" x="568.4" y="219.35" width="14.91" height="8.24" transform="translate(105.05 623.34) rotate(-61.55)"/><path class="cls-11" d="M638.26,169.53l16,67.77a16.76,16.76,0,0,1-9.2,18.87h0a15.77,15.77,0,0,1-21.85-9l-22.5-65.38Z"/><path class="cls-2" d="M634.41,157,645,183.51,597.78,193l-5-23.26a21.84,21.84,0,0,1,10.69-23.63h0A21.83,21.83,0,0,1,634.41,157Z"/><line class="cls-13" x1="604.1" y1="191.71" x2="600.69" y2="181.8"/><path class="cls-11" d="M622,236.78c-14.65,29.27-40.24,79.43-40.24,79.43l15,13.37,55.64-74.48A17.78,17.78,0,0,0,645,228.49h0A17.78,17.78,0,0,0,622,236.78Z"/><circle class="cls-11" cx="586.13" cy="329.76" r="16.41" transform="translate(-29.84 59.82) rotate(-5.7)"/><path class="cls-11" d="M570.39,334.39s-7.37-1.31-4-9.25,12-16.35,27.26-10Z"/><path class="cls-3" d="M554.71,101.26a8.85,8.85,0,1,1-9.15-8.54A8.84,8.84,0,0,1,554.71,101.26Z"/><path class="cls-11" d="M556.66,114.94l.63,31.52c.24,8.87,6.34,9.32,15.06,9h0c7.44-.26,13.74-2.66,14.41-10.08l.46-34.1Z"/><polygon class="cls-3" points="557.16 140.51 580.22 121.95 556.78 122.48 557.16 140.51"/><path class="cls-11" d="M571.81,127l-12.36.43a16.42,16.42,0,0,1-17-16.39l-.05-22.8a21.57,21.57,0,0,1,20.83-21.59h0c11.9-.41,24,8.84,24.39,20.74l-.41,23.9A16,16,0,0,1,571.81,127Z"/><path class="cls-14" d="M584.87,100.5s-16.82,2.48-8.41-16.64c0,0-3.61-6.37-15.06-3.31S538.64,83.11,537,74a13.51,13.51,0,0,1,8.23-14.54c4.81-2.14,11.76-2.45,21,.84a52.33,52.33,0,0,1,13.41,7.36c5.67,4.61,14.52,4.55,15.54,13.29S592,104.25,584.87,100.5Z"/><path class="cls-11" d="M598.73,100.19a8.85,8.85,0,1,1-9.14-8.53A8.83,8.83,0,0,1,598.73,100.19Z"/><path class="cls-15" d="M586.89,103.23s-.22-6.41,6-5.61"/><polyline class="cls-15" points="553.62 103.87 553.29 108.5 556.13 108.4"/><path class="cls-3" d="M550.15,100.43a1.85,1.85,0,1,1-1.91-1.78A1.85,1.85,0,0,1,550.15,100.43Z"/><path class="cls-3" d="M565.1,99.92a1.85,1.85,0,1,1-1.91-1.79A1.86,1.86,0,0,1,565.1,99.92Z"/><path class="cls-14" d="M564.22,89s-4.79-.56-4.82,2c0,0,0,1.73,4.21,2.11s5.26,0,5.63-1.64S566.47,89,564.22,89Z"/><path class="cls-14" d="M547,89.4s3.94-.5,4.29,1.91c0,0,.2,1.63-3.25,2s-4.59-.24-4.93-1.56C542.73,90.22,545.13,89.42,547,89.4Z"/><path class="cls-15" d="M552.31,112.45s6.08,2.9,10.2-1.15"/><path class="cls-11" d="M553.16,143.56l40-.22s-2.63,18-27.45,16.58a24.65,24.65,0,0,1-9.4-2.2C551.77,155.52,547.63,151.45,553.16,143.56Z"/><path class="cls-14" d="M552.31,61.14l25.57-1c9.35-.38,19.63,10.14,19,19.48l-2.44,11.46L557.41,70.24Z"/><rect class="cls-16" x="353.91" y="317.9" width="127.48" height="9.01" rx="4.51" transform="translate(835.29 644.81) rotate(180)"/><path class="cls-17" d="M368.13,326.91h66.76a6,6,0,0,0,5.78-7.81l-12.93-42.3a9.59,9.59,0,0,0-9.16-6.79H349.5a6,6,0,0,0-5.78,7.82L356,317.91A12.72,12.72,0,0,0,368.13,326.91Z"/><path class="cls-16" d="M360.75,326.91H427.5a6.05,6.05,0,0,0,5.79-7.81l-12.93-42.3A9.59,9.59,0,0,0,411.2,270H342.12a6.06,6.06,0,0,0-5.79,7.82l12.25,40.08A12.71,12.71,0,0,0,360.75,326.91Z"/><path class="cls-17" d="M382.9,289.17a9.29,9.29,0,1,0,9.29,9.29A9.29,9.29,0,0,1,382.9,289.17Z"/></g></g></svg>