<svg xmlns="http://www.w3.org/2000/svg" xmlns:xlink="http://www.w3.org/1999/xlink" viewBox="0 0 985.27 584.25"><defs><style>.cls-1,.cls-12,.cls-9{fill:none;}.cls-2{isolation:isolate;}.cls-3{fill:#4c2e3c;}.cls-4{clip-path:url(#clip-path);}.cls-5{fill:#f29e9b;}.cls-6{fill:#cadbe0;}.cls-13,.cls-18,.cls-7{fill:#fff;}.cls-15,.cls-8{fill:#7097c4;}.cls-12,.cls-13,.cls-14,.cls-15,.cls-16,.cls-17,.cls-9{stroke:#4c2e3c;stroke-width:1.5px;}.cls-13,.cls-14,.cls-15,.cls-16,.cls-17,.cls-9{stroke-miterlimit:10;}.cls-10,.cls-16{fill:#9ebae1;}.cls-11{fill:#ffbe83;}.cls-12{stroke-linecap:round;stroke-linejoin:round;}.cls-14{fill:#f19d61;}.cls-17{fill:#ade5ff;fill-opacity:0.35;}.cls-18{fill-rule:evenodd;}.cls-19{fill:#467788;}.cls-20{fill:#df5f5c;}.cls-21{fill:#79bfb7;}.cls-22{fill:#d76861;}.cls-23{fill:#616d7d;}.cls-24{clip-path:url(#clip-path-2);}.cls-25{fill:#ff735d;}.cls-26{opacity:0.1;}.cls-27{fill:#375a64;}.cls-28{clip-path:url(#clip-path-3);}.cls-29{fill:#8994b4;}.cls-30{fill:#aee2ee;}.cls-31{fill:#001348;}.cls-32{fill:#a6c0e4;}.cls-33{mix-blend-mode:color-burn;}.cls-34{fill:#eff3f9;}.cls-35{fill:#e5ebf5;}.cls-36{fill:#d6dfef;}.cls-37{fill:#e2e9f4;}.cls-38{fill:#d9e2f1;}.cls-39{fill:#c6d3e9;}.cls-40{clip-path:url(#clip-path-4);}</style><clipPath id="clip-path"><path class="cls-1" d="M471.79,39.22a2.68,2.68,0,0,1,4.08-2.87l7.41,4.9,13.11,8.66L494,49.74A18.36,18.36,0,0,0,476.15,60h0l-2.67-13.87Z"/></clipPath><clipPath id="clip-path-2"><path class="cls-1" d="M535.4,39.22a2.68,2.68,0,0,0-4.08-2.87l-7.41,4.9L510.8,49.91l2.39-.17A18.36,18.36,0,0,1,531,60h0l2.67-13.87Z"/></clipPath><clipPath id="clip-path-3"><rect class="cls-1" x="644.78" y="11.46" width="69.69" height="47.41"/></clipPath><clipPath id="clip-path-4"><rect class="cls-1" x="290.42" y="11.46" width="69.69" height="47.41" transform="translate(650.53 70.33) rotate(-180)"/></clipPath></defs><g class="cls-2"><g id="Layer_2" data-name="Layer 2"><g id="Layer_1-2" data-name="Layer 1"><path class="cls-3" d="M471.79,39.22a2.68,2.68,0,0,1,4.08-2.87l7.41,4.9,13.11,8.66L494,49.74A18.36,18.36,0,0,0,476.15,60h0l-2.67-13.87Z"/><g class="cls-4"><path class="cls-5" d="M475.72,61.33c-.06-1.11-4.61-23-4.61-23L487,51.66"/></g><path class="cls-6" d="M4.74,299.24C-14.89,190.56,23.13,6.14,181.24,4.55c90.48-.9,168.5,48.74,252.94,73.26a459.55,459.55,0,0,0,212.75,10C711,75.72,777.61,25.94,843.73,35,968.8,63.15,995.28,186.06,982.29,292.44,971.58,383.17,915,584.21,782.75,584.21c-284.38,0-284.38.8-568.18-4.78-41.43-.81-85.72,5-124.22-1.21-36.46-5.9-33.76-37.42-40.65-63.55-6.21-23.36-12.13-47.27-17.08-71.27C22.74,395.39,13.66,347.33,4.74,299.24Z"/><rect class="cls-7" x="496.25" y="328.08" width="24.17" height="164.85"/><path class="cls-8" d="M559.26,502.81H457.84a7.6,7.6,0,0,1,0-15.2H559.26a7.6,7.6,0,1,1,0,15.2Z"/><circle class="cls-8" cx="508.33" cy="514.45" r="16.34"/><circle class="cls-8" cx="561.36" cy="514.45" r="16.34"/><path class="cls-8" d="M624.66,284.47C616.28,372.22,532.87,404.61,466,382s-55.68-87.79-55.68-87.79S634,187.09,624.66,284.47Z"/><path class="cls-8" d="M441.87,294.39S455.43,158,479.81,136.08s100-12.79,118.47-6.83,26.59,151.84,26.59,151.84"/><circle class="cls-8" cx="461.2" cy="514.45" r="16.34"/><path class="cls-5" d="M440.94,319.05c.81,67.7,1.86,147,1.86,147H422.65l-11.8-147.82A242,242,0,0,0,440.94,319.05Z"/><path class="cls-7" d="M414,462.78v17.16l-30.89,7.12a17.07,17.07,0,0,0-11,14.74l-.34,3.87,85.76-.16-7.73-43Z"/><line class="cls-9" x1="373.07" y1="497.31" x2="456.07" y2="497.31"/><line class="cls-9" x1="398.6" y1="483.49" x2="403.97" y2="489.02"/><line class="cls-9" x1="406.64" y1="481.64" x2="412.02" y2="487.18"/><path class="cls-10" d="M462.8,289.33c-2.61-.5-43.06,24.2-62.09,35.94a18.71,18.71,0,0,0-8.83,17.45l7.9,96.25a18.7,18.7,0,0,0,19.87,17.13l18.67-1.22a18.72,18.72,0,0,0,17.48-18.95l-1.21-79.79a18.7,18.7,0,0,1,10.16-16.92l26.73-13.72a18.7,18.7,0,0,0-.75-33.64L450.92,273.6"/><path class="cls-5" d="M537.11,245.51C535.62,292.63,534,347.84,534,347.84l-20.13-1-6.78-103.37C517.28,244.6,527.25,245.3,537.11,245.51Z"/><path class="cls-7" d="M505.37,343.15l-.84,17.15-31.2,5.6a17,17,0,0,0-11.68,14.19l-.53,3.85,85.66,4-5.63-43.36Z"/><line class="cls-9" x1="462.81" y1="375.65" x2="545.71" y2="379.69"/><line class="cls-9" x1="488.98" y1="363.09" x2="494.08" y2="368.88"/><line class="cls-9" x1="497.11" y1="361.64" x2="502.21" y2="367.42"/><path class="cls-10" d="M492.33,318.68a18.7,18.7,0,0,0,19,18.08l18.71-.32a18.7,18.7,0,0,0,18.38-18.07Z"/><polygon class="cls-7" points="552.68 297.65 460.49 280.12 471.76 168.47 495.46 133.53 520.59 137.33 552.68 297.65"/><polyline class="cls-11" points="542.77 66.52 568.24 172.93 505.37 123.83 477.1 167.75 484.09 107.83"/><path class="cls-11" d="M486.94,48.62s40-6.85,53.73,14c10.17,15.51.84,33.69-20.08,41.63-19.93,7.56-13.45-48.22-13.45-48.22Z"/><path class="cls-11" d="M505.37,48.29s-36.21-5.56-37.49,18c-.88,16.23,24.73,21.93,24.73,21.93Z"/><path class="cls-3" d="M491.7,89.71a9.69,9.69,0,1,1-10.34-9A9.69,9.69,0,0,1,491.7,89.71Z"/><path class="cls-5" d="M494.54,116,495.88,137c.46,7.4,3.48,11.11,10.76,10.6h0c6.22-.43,13.61-4.07,14-10.3l-3.7-33.05Z"/><polygon class="cls-3" points="495.46 133.53 520.1 109.41 494.36 113.8 495.46 133.53"/><path class="cls-5" d="M501,119.36h0c-12.45,0-22.73-9.76-23.1-19.93l-.73-24a23.63,23.63,0,0,1,22-24.44h0c13-.9,26.6,8.76,27.5,21.78l.38,19.3C527.27,107,515.85,118.33,501,119.36Z"/><path class="cls-11" d="M511.91,65.93c-3.33,14.46,9.89,23.23,9.89,23.23l13.11-15.31S514.65,54.05,511.91,65.93Z"/><path class="cls-5" d="M538.59,92.42a9.69,9.69,0,1,1-10.33-9A9.69,9.69,0,0,1,538.59,92.42Z"/><path class="cls-12" d="M525.75,96.2s-.49-7,6.29-6.37"/><path class="cls-11" d="M517,66.51s-34.74-4.37-45,1.44c0,0,13.35-23.05,44.08-17.21S529.43,74,529.43,74Z"/><polyline class="cls-12" points="491.25 88.18 490.19 96.95 493.26 97.06"/><path class="cls-11" d="M503.2,77.78s-6.87-.56-6.94,2.24c0,0,0,1.89,6,2.27s7.56-.07,8.11-1.85S506.43,77.8,503.2,77.78Z"/><path class="cls-11" d="M483.27,77.87s5.2-.42,5.7,2.1c0,0,.29,1.7-4.28,2s-6-.3-6.06-1.74C478.53,78.47,480.78,77.85,483.27,77.87Z"/><path class="cls-3" d="M486.29,88.72A2.2,2.2,0,1,1,484,86.59,2.2,2.2,0,0,1,486.29,88.72Z"/><path class="cls-3" d="M504.77,88.11A2.2,2.2,0,1,1,502.5,86,2.19,2.19,0,0,1,504.77,88.11Z"/><path class="cls-12" d="M503.34,103.78s-5.88,5.21-10.7,3.8"/><path class="cls-7" d="M539.71,311.89c-6.24.57-12.57,1-18.83,1.23a63,63,0,0,1-9.81-.57l-.94-144.8,12-34.23,29.09,23.35A47.18,47.18,0,0,1,564,189.2V306.37C556.45,309.81,547.83,311.15,539.71,311.89Z"/><path class="cls-7" d="M543,254.86,522.09,133.52s44.49,15.85,57.13,53.32c5.61,16.62,15.33,40.57,22.68,64.15C582.3,251.72,562.67,253.43,543,254.86Z"/><path class="cls-9" d="M535.31,174.14l7.46,69.75"/><path class="cls-7" d="M473.81,258.3c-16.19.31-32.17-3.31-48.26-4.43,7.26-22.86,16.56-50.93,22-67C460.18,149.37,495.88,137,495.88,137L477.1,204.78Z"/><path class="cls-7" d="M481.81,306.82a107.07,107.07,0,0,1-26.57,3.59,46.37,46.37,0,0,1-6.82-2.41c1.6-71.14,21.17-133.63,21.17-133.63.33-4.11-6.31-7.57-3.57-10.65l18-20.2,11.43,24.23S487,241.1,481.84,306.81Z"/><path class="cls-9" d="M467.86,178a732.74,732.74,0,0,0-16.94,85.33"/><path class="cls-10" d="M548.43,318.37l-55.84,4.29-1-105.4,1.5-2c15.89-24.92,35.83-26.16,49.7-10.54l4,8.57Z"/><path class="cls-10" d="M540.12,200a27.53,27.53,0,0,0-22.82-9.35c-14.61,1.14-24.52,13.52-24.52,21.05s-.14,17.53-.14,17.53"/><path class="cls-13" d="M608.47,307.83a24,24,0,0,1,4.64-.55c1.63-.18,3.25-.43,4.87-.72,3.18-.58,6.24-1.66,9.41-2.29.4-.08.68.48.29.7l-.24.11a.63.63,0,0,1,.7.56c2.55,14.48,5.31,28.94,7.65,43.46,2.31,14.35,4.83,28.67,7.31,43q7.53,43.37,14.88,86.77l4.12,24.21q1,6,2,12A113.83,113.83,0,0,1,665.77,527a.42.42,0,0,1-.2.63,14.18,14.18,0,0,1-3.37.53c-.57,0-1.13,0-1.7,0s-1.29.07-1.58-.43a.45.45,0,0,1,0-.42c-.06-.06-.13-.1-.15-.2-7.4-28.21-14.65-56.46-21.24-84.88-3.31-14.3-6.49-28.62-9.24-43-2.71-14.25-5.41-28.51-8.52-42.67-3.49-15.88-7.22-31.69-11.3-47.43A.65.65,0,0,1,608.47,307.83Z"/><path class="cls-13" d="M315.33,307.83a24,24,0,0,0-4.64-.55c-1.64-.18-3.25-.43-4.87-.72-3.19-.58-6.24-1.66-9.41-2.29a.38.38,0,0,0-.29.7l.23.11a.64.64,0,0,0-.7.56c-2.55,14.48-5.31,28.94-7.64,43.46-2.31,14.35-4.83,28.67-7.32,43q-7.51,43.37-14.88,86.77l-4.11,24.21-2,12A116.55,116.55,0,0,0,258,527a.43.43,0,0,0,.2.63,14.35,14.35,0,0,0,3.37.53c.57,0,1.14,0,1.71,0s1.28.07,1.58-.43a.45.45,0,0,0,0-.42c.05-.06.12-.1.15-.2,7.4-28.21,14.65-56.46,21.23-84.88,3.31-14.3,6.5-28.62,9.25-43,2.71-14.25,5.41-28.51,8.52-42.67,3.49-15.88,7.22-31.69,11.3-47.43A.65.65,0,0,0,315.33,307.83Z"/><path class="cls-13" d="M240,502.59q9.31-53.18,18.89-106.29c3.16-17.68,6.25-35.37,9.41-53.05Q270.65,330,273,316.67c1.59-8.85,3-17.75,4.93-26.53.19-.84,1.16-.7,1.48-.1h0c6.52-.12,13-.14,19.57-.23.47,0,28.31.66,34.18.14,10.43-.93,20.89-.27,31.34-.6,5.32-.17,10.66,0,16,0s10.84.06,16.26,0c10.65-.13,21.31,0,32-.05s21.49,0,32.24.05a.7.7,0,0,1,.65.49c.07.33.13.66.2,1l.06.07s0-.05.06-.07c.07-.33.13-.66.2-1a.69.69,0,0,1,.64-.49q16.13-.12,32.24-.05c10.66,0,21.31-.08,32,.05,5.42.06,10.83,0,16.25,0s10.67-.15,16,0c10.45.33,20.9-.33,31.34.6,5.86.52,33.71-.15,34.18-.14,6.52.09,13,.11,19.56.23h0c.32-.6,1.29-.74,1.47.1,1.92,8.78,3.35,17.68,4.94,26.53s3.19,17.72,4.77,26.58c3.17,17.68,6.25,35.37,9.42,53.05q9.49,53.13,18.89,106.29,5.24,29.91,10.28,59.86a.46.46,0,0,1-.08.33.28.28,0,0,1,0,.2c-.24.49-1.11.48-1.59.51l-2.15.13c-1.45.09-2.92.23-4.38.23,0,0-.07,0-.11-.05a.08.08,0,0,1-.13,0h0a.34.34,0,0,1-.08-.29c-2.36-8.61-4-17.48-5.74-26.22q-2.76-13.44-5.53-26.88-5.53-26.75-11.19-53.47t-11.68-53.36q-6-26.62-12.63-53.12c-2.17-8.8-4.18-17.62-6.49-26.38q-1.76-6.64-3.43-13.3c-8,.25-16,.16-24,.17-11.47,0-23,.26-34.43.09s-23.14.17-34.7.09-22.95,0-34.43,0c-13,0-26.07.27-39.1.05a.81.81,0,0,1-.37-.12.85.85,0,0,1-.37.12c-13,.22-26.07-.06-39.11-.05-11.47,0-22.95-.12-34.42,0s-23.14-.26-34.7-.09-23-.08-34.43-.09c-8,0-16,.08-24-.17-1.13,4.44-2.26,8.87-3.43,13.3-2.31,8.76-4.32,17.58-6.5,26.38q-6.54,26.5-12.63,53.12t-11.67,53.36q-5.65,26.73-11.19,53.47-2.78,13.44-5.53,26.88c-1.79,8.74-3.38,17.61-5.75,26.22a.33.33,0,0,1-.07.29h0a.07.07,0,0,1-.12,0,.26.26,0,0,1-.12.05c-1.45,0-2.92-.14-4.37-.23l-2.16-.13c-.47,0-1.35,0-1.59-.51a.35.35,0,0,1,0-.2.45.45,0,0,1-.07-.33Q234.68,532.5,240,502.59Z"/><path class="cls-14" d="M202.68,278.24c16.92-.59,33.87-.37,50.8-.38l50.8,0q50.81,0,101.6,0c67.39-.05,134.78-.2,202.17,0,38,.12,76-.82,114,0,.37,0,.47,14.75,0,14.76-33.85.73-67.75.29-101.6.26s-67.74.07-101.6,0q-101.08-.13-202.17,0l-57,0c-19,0-38,.27-57-.39a.29.29,0,0,1-.21-.09C202.42,292.36,202.47,278.25,202.68,278.24Z"/><path class="cls-7" d="M558.43,358.41a.86.86,0,0,1-.23-1.59c19.91-10.67,33.15-38.48,33.28-38.76a.84.84,0,0,1,1.13-.41.85.85,0,0,1,.41,1.13c-.13.29-13.59,28.6-34,39.54A.86.86,0,0,1,558.43,358.41Z"/><path class="cls-15" d="M330.23,273H313.12V232H301.43V273h-17.1a5.18,5.18,0,1,0,0,10.35h45.9a5.18,5.18,0,0,0,0-10.35Z"/><rect class="cls-16" x="202.45" y="115.2" width="210.83" height="120.41" rx="8.84"/><path class="cls-13" d="M410,115.2h-5.51a8.84,8.84,0,0,1,8.84,8.84V226.77a8.84,8.84,0,0,1-8.84,8.84H410a8.84,8.84,0,0,0,8.84-8.84V124A8.84,8.84,0,0,0,410,115.2Z"/><path class="cls-13" d="M301.32,158.47a14.46,14.46,0,1,0,14.45,14.46A14.45,14.45,0,0,1,301.32,158.47Z"/><path class="cls-3" d="M657.46,212.21c.47,1.91.14,2.65-.46,2.8s-1.23-.35-1.71-2.26a14,14,0,0,1,0-4.66A13.86,13.86,0,0,1,657.46,212.21Z"/><path class="cls-8" d="M660.81,225.14l-2.39.59,13.35,53.36h0a1.27,1.27,0,1,0,2.38-.6h0Z"/><polygon class="cls-7" points="661.44 226.94 657.68 214.01 655.94 214.45 658.71 227.62 661.44 226.94"/><path class="cls-3" d="M690,208c-.38,1.93-.75,2.51-1.06,2.45s-.43-.74,0-2.67a25.14,25.14,0,0,1,1.43-4.33A25.63,25.63,0,0,1,690,208Z"/><path class="cls-8" d="M686.24,219.3q-5.07,27-10.12,53.93h0c-.17.87-.12,1.61.1,1.66s.54-.63.72-1.5h0L688,219.65Z"/><path class="cls-7" d="M687.93,221.25c1.06-6.85,1.66-10.68,2-13.12l-1.14-.23c-.58,2.41-1.48,6.18-3.1,12.92Z"/><path class="cls-3" d="M681.06,209.19c.64,3.37-2.49,6.26-3.32,6.12-1-.18-.48-.89-1.45-3.95-1.09-3.48.59-6.43,3.75-8.3C679,206.72,680.61,206.83,681.06,209.19Z"/><path class="cls-8" d="M675.3,226.36q-1.62,26.64-2.58,53.34h0c0,.89.38,1.64.91,1.68s1-.65,1.15-1.54h0c1.79-17.71,3.44-35.44,4.83-53.18Z"/><path class="cls-7" d="M679.77,227.68c.12-6.08.21-10.64.25-14.18l-3.3-.23c-.45,3.51-1,8-1.72,14.07Z"/><path class="cls-8" d="M674,268.45l-7.72-66.1-3.37.39,7.71,66.1h0a1.7,1.7,0,0,0,3.38-.39Z"/><rect class="cls-7" x="663.41" y="202.51" width="3.84" height="12.2" transform="translate(-19.7 78.53) rotate(-6.66)"/><rect class="cls-3" x="662.4" y="197.33" width="3.84" height="5.24" transform="translate(-18.7 78.33) rotate(-6.65)"/><path class="cls-8" d="M693.54,228.36l-2.85-.92-16.85,52.5h0a1.5,1.5,0,1,0,2.85.91h0Z"/><polygon class="cls-7" points="693.56 229.18 696.59 217.35 694.63 216.72 690.2 228.1 693.56 229.18"/><polygon class="cls-3" points="698.46 212.45 695.97 211.65 694.65 216.72 696.59 217.35 698.46 212.45"/><path class="cls-7" d="M686.15,283.07H665.89c-3.26-11.92-4.86-24.5-2.84-36.42H689C691,258.57,689.41,271.15,686.15,283.07Z"/><path class="cls-8" d="M663.71,273.6c.59,3.19,1.33,6.35,2.18,9.47h20.26c.85-3.12,1.59-6.28,2.18-9.47Z"/><rect class="cls-13" x="637.7" y="0.75" width="83.85" height="68.83" rx="11.85"/><ellipse class="cls-5" cx="419.4" cy="333.04" rx="14.96" ry="4.96"/><ellipse class="cls-5" cx="520.09" cy="208.3" rx="14.96" ry="4.96"/><path class="cls-9" d="M492.59,277.5c0-13.79-1.43-27.53-1.45-41.31,0-11.38-.67-26.51,6.89-35.87a25.6,25.6,0,0,1,13.72-8.77c17.8-4.61,35,9.4,35,27.78v16.28"/><circle class="cls-17" cx="477.9" cy="90.99" r="10.38"/><circle class="cls-17" cx="504.78" cy="90.99" r="10.38"/><line class="cls-17" x1="488.05" y1="90.99" x2="493.9" y2="90.99"/><path class="cls-13" d="M591.15,238.77c-11.63-5.57-63.73-8.62-75.65,9.9l2.85,19.84c13.87,17.4,42.4,15.78,62,12.82,10.29-1.55,18.27-3.76,22.93-14,5.49-12.07-.82-23.07-12.15-28.55"/><path class="cls-3" d="M492.93,280.9l-6.32,4.68-1.6-7.94L501,239a4.28,4.28,0,0,1,5.59-2.32h0a4.29,4.29,0,0,1,2.33,5.59Z"/><path class="cls-5" d="M496.24,281.3a17.37,17.37,0,1,0-10.12-22.39A17.37,17.37,0,0,0,496.24,281.3Z"/><path class="cls-5" d="M499,249s-.64-6.82,8.12-4.27,16.4,9.68,11.53,26.47Z"/><path class="cls-5" d="M428,281.3a17.37,17.37,0,1,0-10.12-22.39A17.37,17.37,0,0,0,428,281.3Z"/><path class="cls-5" d="M430.77,249s-.63-6.82,8.12-4.27,16.41,9.68,11.53,26.47Z"/><polygon class="cls-3" points="534.9 288.02 409.8 288.02 409.8 266.98 534.9 274.11 534.9 288.02"/><path class="cls-9" d="M333.32,281.38s16.14-6.89,26.94,0,28.8,0,28.8,0,8.65-5.36,22.55,3.06"/><line class="cls-13" x1="492.59" y1="322.66" x2="548.43" y2="320.58"/><g id="palette"><path class="cls-18" d="M605.41,272.3c-5.38,4.45-4.48,9.83,2.13,13.93,5,3.11,11.48,5,19.75,5.13,14,.19,25.89-2,35.07-7.22,3.24-1.82,5.48-3.92,6.39-6.3,1-2.7-.49-5-4.89-6.76-.69-.28-1.45-.52-2.23-.8a20.21,20.21,0,0,0-3.59-.61,27.61,27.61,0,0,0-11.52,1.39c-2.38.83-4.65,1.72-7,2.55-2.67.93-6.13.76-8.1-.41-1.74-1-1.82-2.2-.86-3.41a5.62,5.62,0,0,0,.91-1.43c.57-1.6-1.27-2.78-4.61-3a25.06,25.06,0,0,0-7.67.63C613.3,267.45,608.69,269.58,605.41,272.3ZM660.29,274c.9,1.06-1.55,2.55-5.49,3.32s-7.86.54-8.76-.52,1.55-2.54,5.49-3.31S659.39,273,660.29,274Z"/><path class="cls-19" d="M616.85,269.39a7.47,7.47,0,0,1,5.71-.13c1.65.72,1.77,1.94.27,2.73a7.44,7.44,0,0,1-5.7.13C615.48,271.4,615.36,270.18,616.85,269.39Z"/><path class="cls-20" d="M609.3,275.79a7.42,7.42,0,0,1,5.71-.13c1.64.71,1.77,1.94.27,2.73a7.44,7.44,0,0,1-5.7.13C607.93,277.8,607.81,276.58,609.3,275.79Z"/><path class="cls-21" d="M614,283.35a7.44,7.44,0,0,1,5.7-.13c1.65.72,1.77,1.95.27,2.74a7.44,7.44,0,0,1-5.7.13C612.62,285.37,612.5,284.14,614,283.35Z"/><path class="cls-22" d="M645.7,282a7.44,7.44,0,0,1,5.7-.13c1.65.71,1.77,1.94.27,2.73a7.44,7.44,0,0,1-5.7.13C644.32,284,644.2,282.82,645.7,282Z"/><path class="cls-23" d="M630,285.3a7.47,7.47,0,0,1,5.71-.13c1.65.72,1.77,1.94.27,2.74a7.44,7.44,0,0,1-5.7.13C628.63,287.32,628.51,286.09,630,285.3Z"/></g><path class="cls-3" d="M535.4,39.22a2.68,2.68,0,0,0-4.08-2.87l-7.41,4.9L510.8,49.91l2.39-.17A18.36,18.36,0,0,1,531,60h0l2.67-13.87Z"/><g class="cls-24"><path class="cls-5" d="M530.88,62c.09-1.11,5-23.51,5-23.51l-16,13.54"/></g><polygon class="cls-7" points="229.67 237.62 236.09 195.16 241.32 190.9 246.8 190.9 249.33 195.59 255.62 237.62 247.58 245.76 238.98 244.46 229.67 237.62"/><path class="cls-3" d="M229.67,237.64l7,22.26-7,20.74q12.69,6.14,26.46,0l-7.38-20.74,6.87-22.26S245.7,241.56,229.67,237.64Z"/><path class="cls-25" d="M253.14,237.33a1.22,1.22,0,0,0,.85-1.79c-1.77-3.17-3.83-3.53-4.36-5.34-.32-1.1.45-2.23.81-3.31a11.21,11.21,0,0,0,.55-5.81,5.77,5.77,0,0,0-3.61-4.33,3.92,3.92,0,0,0-4.83,2.22c-.84,2.59,1.7,5.2,1.4,7.91a7.72,7.72,0,0,1-4.38,6.52c-3.52,1.73-10.4,2.4-8.65,3.54.47.31,7.61,1.29,12,1.31A54.85,54.85,0,0,0,253.14,237.33Z"/><path class="cls-25" d="M240.2,205.94a5.53,5.53,0,0,1,2.88,8.85,12.36,12.36,0,0,0-2,2.34,13.63,13.63,0,0,0-.6,2.56c-.22.85-.82,1.74-1.7,1.8a2,2,0,0,1-1.8-1.41c-.29-.76.15-2.3,0-3.1-.31-1.62-1.68-2.39-2-4-.6-3.23,1.05-7.26,5.16-7"/><path class="cls-25" d="M248.88,195.79c.13.69-.58,1.06-1.18,1.43a9.42,9.42,0,0,0-1.78,1.09,2.32,2.32,0,0,0,0,3.18c.23.23.52.41.73.66a2.05,2.05,0,0,1-.43,2.77,3.62,3.62,0,0,1-3,.57,6.21,6.21,0,0,1-4.9-5.68c0-1,.09-2.11-.67-2.71-.27-.2-.6-.31-.85-.53s-.37-.66-.12-.87a25.66,25.66,0,0,1,6.34-.83A14.8,14.8,0,0,1,248.88,195.79Z"/><path class="cls-8" d="M249.45,213.53a1.88,1.88,0,1,1-1.87-1.88A1.87,1.87,0,0,1,249.45,213.53Z"/><path class="cls-8" d="M253.14,237.33a1.22,1.22,0,0,0,.85-1.79c-1.77-3.17-3.83-3.53-4.36-5.34-.32-1.1.45-2.23.81-3.31a11.21,11.21,0,0,0,.55-5.81,5.77,5.77,0,0,0-3.61-4.33,3.92,3.92,0,0,0-4.83,2.22c-.84,2.59,1.7,5.2,1.4,7.91a7.72,7.72,0,0,1-4.38,6.52c-3.52,1.73-10.4,2.4-8.65,3.54.47.31,7.61,1.29,12,1.31A54.85,54.85,0,0,0,253.14,237.33Z"/><path class="cls-8" d="M240.2,205.94a5.53,5.53,0,0,1,2.88,8.85,12.36,12.36,0,0,0-2,2.34,13.63,13.63,0,0,0-.6,2.56c-.22.85-.82,1.74-1.7,1.8a2,2,0,0,1-1.8-1.41c-.29-.76.15-2.3,0-3.1-.31-1.62-1.68-2.39-2-4-.6-3.23,1.05-7.26,5.16-7"/><path class="cls-8" d="M248.88,195.79c.13.69-.58,1.06-1.18,1.43a9.42,9.42,0,0,0-1.78,1.09,2.32,2.32,0,0,0,0,3.18c.23.23.52.41.73.66a2.05,2.05,0,0,1-.43,2.77,3.62,3.62,0,0,1-3,.57,6.21,6.21,0,0,1-4.9-5.68c0-1,.09-2.11-.67-2.71-.27-.2-.6-.31-.85-.53s-.37-.66-.12-.87a25.66,25.66,0,0,1,6.34-.83A14.8,14.8,0,0,1,248.88,195.79Z"/><path class="cls-25" d="M233.42,228.73a3,3,0,1,0,2.85-3.09A3,3,0,0,0,233.42,228.73Z"/><path class="cls-8" d="M233.42,228.73a3,3,0,1,0,2.85-3.09A3,3,0,0,0,233.42,228.73Z"/><g class="cls-26"><path class="cls-7" d="M235.75,229.77a.52.52,0,0,1,.33,1,.53.53,0,0,1-.66-.32.55.55,0,0,1,.32-.67"/></g><path class="cls-25" d="M250,207.48a2.64,2.64,0,0,0-.45-1.18,1.87,1.87,0,0,0-2.87-.22.9.9,0,0,0-.15.19,1.22,1.22,0,0,0,0,1.51c.29.29.77.39.94.75s-.11.95.1,1.36a.77.77,0,0,0,.7.35,1.42,1.42,0,0,0,.75-.33A2.65,2.65,0,0,0,250,207.48Z"/><path class="cls-8" d="M250,207.48a2.64,2.64,0,0,0-.45-1.18,1.87,1.87,0,0,0-2.87-.22.9.9,0,0,0-.15.19,1.22,1.22,0,0,0,0,1.51c.29.29.77.39.94.75s-.11.95.1,1.36a.77.77,0,0,0,.7.35,1.42,1.42,0,0,0,.75-.33A2.65,2.65,0,0,0,250,207.48Z"/><path class="cls-8" d="M241.67,224.37a1.16,1.16,0,1,1-1.15-1.15A1.16,1.16,0,0,1,241.67,224.37Z"/><path class="cls-25" d="M236.36,220.92a.73.73,0,1,1-.72-.72A.72.72,0,0,1,236.36,220.92Z"/><path class="cls-8" d="M236.36,220.92a.73.73,0,1,1-.72-.72A.72.72,0,0,1,236.36,220.92Z"/><path class="cls-8" d="M238.21,204.23a.71.71,0,1,1-.71-.71A.71.71,0,0,1,238.21,204.23Z"/><path class="cls-3" d="M236.09,195.16l2.84-16.5a9.94,9.94,0,0,1,7.56,0l2.84,16.93S245.12,192.76,236.09,195.16Z"/><path class="cls-27" d="M245.89,179.26s-.33-.18-.87-.38a6.66,6.66,0,0,0-1-.27,8.12,8.12,0,0,0-1.25-.1,8,8,0,0,0-1.25.11,7,7,0,0,0-1,.28c-.55.21-.85.42-.87.39s.06-.07.2-.17a1.36,1.36,0,0,1,.25-.16,2.55,2.55,0,0,1,.37-.18,5.57,5.57,0,0,1,1-.33,6.37,6.37,0,0,1,1.28-.13,7.23,7.23,0,0,1,1.28.12,6.09,6.09,0,0,1,1,.31l.36.18.26.16C245.82,179.19,245.9,179.25,245.89,179.26Z"/><path class="cls-27" d="M230.43,280.07c-.05,0,1.28-4.2,3-9.34s3.1-9.3,3.15-9.29-1.28,4.2-3,9.35S230.48,280.08,230.43,280.07Z"/><g class="cls-28"><path class="cls-29" d="M656.87,33.9c5.57-.19,11.25.25,16.69-.33C678,33.11,682,32,686.31,31.33c5.54-.85,11.47-1,17.18-1.51s11.59-1.7,14.79-4q1,16.59,2,33.19a1.65,1.65,0,0,1-.52,1.57c-1.05.86-3.52,1-5.63,1l-67.49,1.1a11.92,11.92,0,0,1-4.2-.41,2.65,2.65,0,0,1-1.67-1.84C638,52.64,631.32,34.77,656.87,33.9Z"/><path class="cls-30" d="M657.07,37.79c5.44.7,10.62,2.17,16.25,2,3.66-.1,7.33-.89,10.86-.44a39.49,39.49,0,0,1,6.43,1.75,37.12,37.12,0,0,0,18.23.19c2.31-.6,5.13-1.46,7.31-.76A2.45,2.45,0,0,1,718,42.88q1.08,9.21,2.17,18.43l-79,.46q.29-8.69.58-17.38c.06-2-.77-4.08,2.64-5.58S652.92,37.26,657.07,37.79Z"/><path class="cls-31" d="M647.07,45.51a32.56,32.56,0,0,1,9.58,1.1,36.31,36.31,0,0,0,9.54,1.26c4.41-.19,8-1.85,12.32-2.24,3.68-.32,7.41.3,11.14.47,10.25.45,19.63-2.49,28-5.29q2.22,10.55,4.45,21.11l-85.29-.31c1.17-3.55,2.76-7.14,3.48-10.72C640.76,48.71,641.13,46,647.07,45.51Z"/><path class="cls-32" d="M653.43,53.56c5.58.46,11,1.65,16.63,1.38,8.41-.4,14.67-3.89,22.75-5,3.79-.54,7.83-.55,11.75-.84s8-.92,10.45-2.38L715.34,61l-75.72.88c.11-1.76-1.37-5,.36-6.58C642.18,53.34,649.53,53.24,653.43,53.56Z"/><g class="cls-33"><path class="cls-34" d="M713.75,60.71h1.13c.08,0,.09-.09-.06-.13-.57-.15-.3-.3-.08-.48a2.8,2.8,0,0,0-1,.27l0,.05C714,60.59,713.9,60.65,713.75,60.71Z"/><path class="cls-35" d="M704.54,60.71h2.14c-.11-.14-.2-.29-.62-.19s-.91-.13-1.18.08C705,60.72,704.66,60.68,704.54,60.71Z"/><path class="cls-36" d="M689,60.71h2.34a4.82,4.82,0,0,0,1.19-.35c.16-.13.33-.29,0-.4s-1,.21-1.41.29a2.28,2.28,0,0,0-1.46-.32C688.43,60.58,689.15,60.24,689,60.71Z"/><path class="cls-37" d="M709,60.37c-.86-.27-.2-.31.4-.37-.28.19.42.46-.4.6Z"/><path class="cls-38" d="M699,60.52c0,.14-.26.13-.47.16s-.39,0-.39-.08.06-.22.31-.24S698.84,60.47,699,60.52Z"/><path class="cls-39" d="M688.34,60.71c.14-.16.43-.31.32-.48-.58-.09-.6.3-1,.46-.1-.07,0-.15-.07-.21s.23-.31-.29-.35-.59.22-1.4.58Z"/></g></g><rect class="cls-13" x="283.34" y="0.75" width="83.85" height="68.83" rx="11.85"/><g class="cls-40"><path class="cls-3" d="M348,33.9c-5.56-.19-11.24.25-16.68-.33-4.43-.46-8.43-1.57-12.75-2.24-5.54-.85-11.47-1-17.18-1.51s-11.59-1.7-14.8-4q-1,16.59-2,33.19a1.65,1.65,0,0,0,.52,1.57c1,.86,3.52,1,5.63,1l67.49,1.1a11.94,11.94,0,0,0,4.2-.41,2.61,2.61,0,0,0,1.66-1.84C366.91,52.64,373.57,34.77,348,33.9Z"/><path class="cls-11" d="M347.82,37.79c-5.44.7-10.62,2.17-16.25,2-3.66-.1-7.33-.89-10.87-.44a39.37,39.37,0,0,0-6.42,1.75,37.12,37.12,0,0,1-18.23.19c-2.31-.6-5.13-1.46-7.31-.76a2.44,2.44,0,0,0-1.85,2.33q-1.08,9.21-2.17,18.43l79,.46q-.29-8.69-.58-17.38c-.06-2,.77-4.08-2.65-5.58S352,37.26,347.82,37.79Z"/><path class="cls-31" d="M357.82,45.51a32.67,32.67,0,0,0-9.59,1.1,36.18,36.18,0,0,1-9.53,1.26c-4.41-.19-8-1.85-12.33-2.24-3.68-.32-7.4.3-11.13.47-10.25.45-19.64-2.49-28-5.29Q285,51.36,282.75,61.92l85.3-.31c-1.17-3.55-2.76-7.14-3.48-10.72C364.13,48.71,363.76,46,357.82,45.51Z"/><path class="cls-32" d="M351.45,53.56c-5.57.46-11,1.65-16.62,1.38-8.41-.4-14.68-3.89-22.75-5-3.8-.54-7.83-.55-11.75-.84s-8-.92-10.45-2.38L289.55,61l75.72.88c-.11-1.76,1.36-5-.36-6.58C362.71,53.34,355.35,53.24,351.45,53.56Z"/><g class="cls-33"><path class="cls-34" d="M291.14,60.71H290c-.08,0-.09-.09.06-.13.56-.15.3-.3.08-.48a2.8,2.8,0,0,1,1,.27l0,.05C290.87,60.59,291,60.65,291.14,60.71Z"/><path class="cls-35" d="M300.35,60.71h-2.14c.11-.14.2-.29.62-.19s.91-.13,1.18.08C299.9,60.72,300.23,60.68,300.35,60.71Z"/><path class="cls-36" d="M315.87,60.71h-2.34a4.68,4.68,0,0,1-1.19-.35c-.16-.13-.33-.29,0-.4s1,.21,1.41.29a2.28,2.28,0,0,1,1.46-.32C316.46,60.58,315.73,60.24,315.87,60.71Z"/><path class="cls-37" d="M295.86,60.37c.87-.27.2-.31-.39-.37.28.19-.42.46.39.6Z"/><path class="cls-38" d="M305.87,60.52c0,.14.26.13.47.16s.39,0,.38-.08-.05-.22-.31-.24S306,60.47,305.87,60.52Z"/><path class="cls-39" d="M316.55,60.71c-.15-.16-.43-.31-.32-.48.58-.09.6.3,1,.46.1-.07,0-.15.06-.21s-.22-.31.3-.35.59.22,1.4.58Z"/></g></g></g></g></g></svg>