<svg xmlns="http://www.w3.org/2000/svg" xmlns:xlink="http://www.w3.org/1999/xlink" viewBox="0 0 977.81 542.75"><defs><style>.cls-1,.cls-13,.cls-16,.cls-9{fill:none;}.cls-2{fill:#cadbe0;}.cls-3{fill:#7097c4;}.cls-13,.cls-16,.cls-3,.cls-4,.cls-7{stroke:#4c2e3c;stroke-width:1.5px;}.cls-10,.cls-11,.cls-13,.cls-3,.cls-4,.cls-7,.cls-9{stroke-miterlimit:10;}.cls-10,.cls-4,.cls-8{fill:#fff;}.cls-5{fill:#4c2e3c;}.cls-6{fill:#4d2e3c;}.cls-11,.cls-7{fill:#9ebae1;}.cls-10,.cls-11,.cls-9{stroke:#fff;stroke-width:1.32px;}.cls-12{clip-path:url(#clip-path);}.cls-14{fill:#f29e9b;}.cls-15{fill:#94a6c6;}.cls-16{stroke-linecap:round;stroke-linejoin:round;}</style><clipPath id="clip-path"><path class="cls-1" d="M768.88,254H605.38a20.13,20.13,0,0,1-18.63-11.76l-35.11-81.49c-2.77-6.42,2.29-13.42,9.69-13.42H720.12a25.21,25.21,0,0,1,22.06,12.44l18.87,33.43,22,38.91C788.61,242.06,780.9,254,768.88,254Z"/></clipPath></defs><g id="Layer_2" data-name="Layer 2"><g id="Layer_1-2" data-name="Layer 1"><path class="cls-2" d="M3.4,300.52C-6,241.93,4.38,153.46,31.21,102,63.09,41,144.3,11.43,197,8.36,271.92,4,349.83,28,433.58,42.67c54.92,9.65,122.08,9.77,177.21.84C674.48,32.91,726.48,2.48,791,.17c52.73-2.08,120.11,15,151.74,60.65,36,52,39.26,129.31,31.83,190.12C963.86,341.67,907.29,542.71,775,542.71c-284.38,0-284.38.8-568.29-4.66-41.43-.8-85.67,4.92-124.15-1.32-36.44-5.92-33.82-37-40.64-61.81-6.18-21.38-12.13-42.49-17-62.25C16.07,373.31,9.21,336.69,3.4,300.52Z"/><g id="ГРУЗОВИК"><rect class="cls-3" x="82.72" y="289.71" width="799.64" height="146.4"/><path class="cls-4" d="M454.57,452.46c0-.07.07-.2.07-.27.06-.68.13-1.3.13-2C454.77,451,454.64,451.71,454.57,452.46Zm0,0c0-.07.07-.2.07-.27.06-.68.13-1.3.13-2C454.77,451,454.64,451.71,454.57,452.46Z"/><path class="cls-5" d="M499.16,436.79c0-1.23,0-2.39,0-3.62a20,20,0,0,1,0-2.19,1.89,1.89,0,0,1-.05-.55c0-.89-.12-1.78-.21-2.67-.13-1.58-.19-3.15-.39-4.66,0-.28,0-.55,0-.83-.1-.75-.27-1.58-.36-2.4-.21-1.45-.41-3-.68-4.47-.22-1-.45-2.07-.67-3.18-.27-1.38-.62-2.76-1-4.14l-.87-3.12c-.35-1.31-.77-2.63-1.18-3.88-.36-1-.73-2-1.09-3-.42-1.24-.91-2.43-1.46-3.68a16.4,16.4,0,0,0-.61-1.54c-.19-.41-.37-.83-.56-1.18-.56-1.12-1.12-2.24-1.62-3.29-.31-.56-.56-1.12-.88-1.68a11.47,11.47,0,0,0-.69-1.2c-.31-.56-.7-1.12-1-1.75a15.1,15.1,0,0,1-.82-1.34c-.51-.84-1.09-1.55-1.6-2.33a7.27,7.27,0,0,0-.51-.71c-.06-.13-.13-.21-.19-.35-.71-.92-1.48-1.91-2.19-2.76a10.79,10.79,0,0,0-.84-1l-.58-.64c-.2-.22-.39-.5-.58-.71-.65-.72-1.3-1.36-2-2-.32-.29-.58-.57-.91-.86a1.3,1.3,0,0,0-.46-.37l-.58-.64c-.6-.5-1.25-1-1.84-1.52-.46-.36-.93-.66-1.32-1-.13-.07-.2-.15-.33-.22s-.2-.15-.27-.22c-.59-.44-1.25-.88-1.85-1.25s-1.26-.81-1.92-1.11c-.07-.07-.14-.08-.2-.15s-.14-.07-.2-.08c-.54-.3-1-.59-1.53-.82s-1.27-.61-1.94-.91c-.27-.08-.54-.23-.87-.32-.14-.07-.27-.08-.41-.15s-.46-.23-.73-.31c-.74-.24-1.41-.48-2.16-.65-.47-.16-1-.25-1.48-.41a1,1,0,0,1-.41-.09.59.59,0,0,1-.33-.09c-.81-.17-1.7-.28-2.51-.39s-1.36-.13-2-.17a2.64,2.64,0,0,0-.68-.1,16.11,16.11,0,0,1-1.84,0l-41.6.27-.41,0c-26,.33-47.71,32.21-49,72.78-1.25,41.87,19.79,77.36,46.89,79.07a21,21,0,0,0,3.55,0l-1,.16,42.08-.24a32,32,0,0,0,5.63-.62c.55-.11,1.1-.29,1.65-.4a38.87,38.87,0,0,0,3.89-1.18c.62-.25,1.18-.49,1.74-.74,1.39-.61,2.72-1.3,4.13-2,.35-.26.7-.38,1.05-.64a40.49,40.49,0,0,0,4.88-3.59,1,1,0,0,0,.29-.19l1.92-1.75c.51-.52,1.08-1,1.58-1.56a.61.61,0,0,0,.29-.26,31.26,31.26,0,0,0,2.81-3.15c.14-.13.22-.26.29-.33a8,8,0,0,0,.51-.72c.51-.66,1.09-1.32,1.6-2,.36-.46.73-1.06,1.1-1.59.22-.26.37-.53.59-.79a3.25,3.25,0,0,0,.37-.6c.66-1,1.32-2,1.92-3.05.15-.26.3-.53.44-.8s.31-.6.46-.86c.29-.47.52-.93.75-1.4.52-1,1.05-2.07,1.58-3.07.07-.13.08-.26.15-.4s.23-.4.3-.6l.93-2.21c.46-1,.92-2.14,1.31-3.21,0-.07.07-.07.08-.14a.23.23,0,0,1,.08-.2c.39-1,.71-2,1-3s.64-1.95,1-3a.39.39,0,0,0,.08-.27.24.24,0,0,0,.08-.2c.33-1.21.66-2.36,1-3.57.17-.74.35-1.56.59-2.3a3.29,3.29,0,0,1,.18-.87,1.9,1.9,0,0,1,.16-.61c.27-1.29.54-2.64.74-4,.09-.47.18-.94.27-1.48s.11-.75.2-1.16A12.27,12.27,0,0,0,498,452c.21-1.49.42-3,.57-4.62V447a4.34,4.34,0,0,0,.12-.95c0-1.22.18-2.45.24-3.67l.15-3.14C499.15,438.43,499.19,437.61,499.16,436.79Zm-85.39,74.86a1.85,1.85,0,0,0-.62,0,6.88,6.88,0,0,0,1.17-.22A5.09,5.09,0,0,1,413.77,511.65Z"/><path class="cls-5" d="M905.36,437c0-1.23,0-2.39,0-3.62,0-.76-.06-1.44,0-2.19a2.25,2.25,0,0,1,0-.55c0-.89-.11-1.78-.2-2.67-.13-1.58-.19-3.15-.38-4.67,0-.27,0-.55,0-.82-.1-.75-.26-1.58-.36-2.41-.2-1.44-.39-2.95-.66-4.47-.22-1-.44-2.07-.66-3.17-.27-1.38-.61-2.77-1-4.15l-.87-3.12c-.34-1.31-.75-2.63-1.16-3.88-.36-1-.72-2-1.08-3-.42-1.25-.9-2.44-1.46-3.7a14.64,14.64,0,0,0-.6-1.53c-.18-.42-.37-.84-.56-1.19-.55-1.12-1.11-2.24-1.61-3.29-.31-.56-.55-1.12-.87-1.68a10.53,10.53,0,0,0-.69-1.2c-.31-.56-.69-1.13-1-1.76a12.68,12.68,0,0,1-.82-1.34c-.51-.84-1.08-1.55-1.59-2.33a7.27,7.27,0,0,0-.51-.71c-.06-.14-.13-.21-.19-.35-.7-.92-1.47-1.92-2.18-2.77a11,11,0,0,0-.84-1l-.58-.65c-.19-.21-.39-.49-.58-.71-.65-.71-1.3-1.36-2-2-.32-.29-.58-.58-.91-.87a1.27,1.27,0,0,0-.46-.36l-.58-.64c-.59-.51-1.25-1-1.84-1.53s-.92-.66-1.31-1c-.13-.08-.2-.15-.33-.23s-.2-.14-.26-.21c-.6-.44-1.26-.89-1.85-1.26s-1.26-.81-1.93-1.12c-.06-.07-.13-.07-.19-.15s-.14-.07-.2-.07c-.54-.3-1-.6-1.53-.83s-1.27-.61-1.94-.92c-.27-.08-.53-.23-.87-.32-.13-.07-.27-.08-.4-.15s-.47-.23-.74-.32c-.74-.24-1.41-.48-2.15-.65-.47-.16-1-.26-1.48-.42a.77.77,0,0,1-.41-.09.58.58,0,0,1-.33-.08c-.81-.18-1.7-.29-2.51-.4a20,20,0,0,0-2-.17,2,2,0,0,0-.68-.1c-.62,0-1.23,0-1.84,0l-41.6.15-.41,0c-26,.26-47.79,32.08-49.16,72.65-1.36,41.87,19.58,77.41,46.68,79.19a20,20,0,0,0,3.55,0l-1,.15,42.08-.13a32,32,0,0,0,5.63-.6c.55-.11,1.11-.29,1.66-.4a34,34,0,0,0,3.88-1.17c.63-.24,1.19-.48,1.75-.73,1.39-.61,2.72-1.29,4.13-2,.35-.26.7-.38,1.05-.63a40.6,40.6,0,0,0,4.9-3.58.8.8,0,0,0,.28-.19l1.93-1.75c.51-.52,1.08-1,1.58-1.56a.51.51,0,0,0,.29-.25,30.07,30.07,0,0,0,2.82-3.14,3.06,3.06,0,0,0,.29-.33,6.41,6.41,0,0,0,.52-.72c.51-.66,1.09-1.31,1.6-2,.37-.46.74-1.05,1.11-1.58.22-.26.37-.53.58-.79a2.44,2.44,0,0,0,.37-.6c.67-1,1.33-2,1.93-3l.45-.8c.16-.33.31-.6.46-.86.29-.47.52-.93.75-1.4.53-1,1.06-2.06,1.59-3.06.08-.13.08-.27.16-.4s.22-.4.3-.6l.93-2.21c.46-1,.93-2.14,1.33-3.21,0-.07.07-.07.07-.13a.24.24,0,0,1,.08-.2c.39-1,.72-2,1-3s.64-1.94,1-3a.41.41,0,0,0,.08-.27.25.25,0,0,0,.08-.2c.33-1.21.66-2.36,1-3.57.17-.74.35-1.55.59-2.29a4.44,4.44,0,0,1,.18-.88,1.92,1.92,0,0,1,.17-.61c.27-1.28.54-2.63.75-4l.28-1.49c.09-.4.1-.74.19-1.15a12.5,12.5,0,0,0,.22-1.49c.21-1.49.42-3,.57-4.62l0-.34a4.33,4.33,0,0,0,.11-.95c.07-1.22.2-2.45.26-3.67l.16-3.14C905.35,438.62,905.39,437.8,905.36,437Zm-85.59,74.63a2.15,2.15,0,0,0-.62,0,6,6,0,0,0,1.17-.21A5.09,5.09,0,0,1,819.77,511.61Z"/><path class="cls-6" d="M658.5,429.79c-.07-.75-.14-1.43-.14-2.18a2,2,0,0,1-.06-.55c-.07-.88-.21-1.77-.34-2.66-.21-1.57-.35-3.14-.62-4.64,0-.27-.07-.54-.07-.81-.13-.75-.34-1.57-.47-2.39-.28-1.43-.55-2.93-.89-4.44-.27-1-.55-2-.82-3.13-.34-1.37-.75-2.73-1.16-4.1l-1-3.07c-.41-1.29-.89-2.59-1.37-3.82-.41-1-.82-2-1.22-2.93-.48-1.23-1-2.39-1.64-3.61A15.39,15.39,0,0,0,648,390c-.21-.41-.41-.82-.62-1.16-.61-1.1-1.23-2.19-1.77-3.21-.34-.55-.61-1.09-1-1.64a9.47,9.47,0,0,0-.75-1.16c-.34-.54-.75-1.09-1.09-1.7a14.18,14.18,0,0,1-.88-1.3c-.55-.82-1.16-1.5-1.71-2.25a4.92,4.92,0,0,0-.55-.68,3.79,3.79,0,0,0-.2-.34c-.75-.89-1.57-1.84-2.32-2.66a11.87,11.87,0,0,0-.89-1l-.61-.61c-.2-.21-.41-.48-.61-.68-.69-.69-1.37-1.3-2-1.91-.34-.28-.61-.55-1-.82a1.17,1.17,0,0,0-.47-.34l-.62-.62c-.61-.47-1.29-.95-1.91-1.43s-.95-.61-1.36-.95c-.14-.07-.21-.14-.34-.21s-.21-.14-.27-.2c-.62-.41-1.3-.82-1.91-1.16s-1.3-.75-2-1c-.07-.06-.14-.06-.21-.13s-.13-.07-.2-.07a17.15,17.15,0,0,0-1.57-.75c-.61-.27-1.3-.55-2-.82-.27-.07-.55-.21-.89-.27-.13-.07-.27-.07-.41-.14s-.47-.2-.75-.27c-.75-.21-1.43-.41-2.18-.55-.48-.13-1-.2-1.5-.34a.85.85,0,0,1-.41-.07.61.61,0,0,1-.34-.07c-.82-.13-1.7-.2-2.52-.27a20.16,20.16,0,0,0-2.05-.07,2.36,2.36,0,0,0-.68-.06c-.62.06-1.23.06-1.84.06l-41.52,2.25h-.41c-26,1.57-46.11,34.45-45.43,75,.75,41.88,23.46,76.33,50.61,76.74a19.76,19.76,0,0,0,3.55-.21l-1,.21,42-2.25A32.13,32.13,0,0,0,619,510c.54-.14,1.09-.34,1.63-.48a36.74,36.74,0,0,0,3.82-1.36c.62-.28,1.16-.55,1.71-.82,1.36-.68,2.66-1.43,4-2.25.34-.27.69-.41,1-.68a42,42,0,0,0,4.7-3.82,1,1,0,0,0,.28-.21l1.84-1.84c.47-.55,1-1.09,1.5-1.64a.55.55,0,0,0,.27-.27,31.1,31.1,0,0,0,2.66-3.27,3.07,3.07,0,0,0,.27-.35,5.12,5.12,0,0,0,.48-.75c.48-.68,1-1.36,1.5-2.11.34-.48.68-1.09,1-1.64.2-.27.34-.54.54-.82a2.67,2.67,0,0,0,.34-.61c.62-1,1.23-2,1.78-3.14.13-.27.27-.54.41-.82s.27-.61.4-.88a13.47,13.47,0,0,0,.69-1.44c.47-1,1-2.11,1.43-3.13.07-.14.07-.28.14-.41s.2-.41.27-.62c.27-.75.54-1.5.82-2.25.41-1,.82-2.18,1.16-3.27,0-.07.06-.07.06-.14a.24.24,0,0,1,.07-.2c.34-1,.62-2.05.89-3.07s.54-2,.82-3a.42.42,0,0,0,.07-.28.25.25,0,0,0,.06-.2c.28-1.23.55-2.39.82-3.62.14-.75.28-1.57.48-2.32a3.84,3.84,0,0,1,.14-.88,2.29,2.29,0,0,1,.13-.62c.21-1.29.41-2.66.55-4,.07-.48.14-1,.2-1.5s.07-.75.14-1.16a12,12,0,0,0,.14-1.5c.13-1.5.27-3.07.34-4.64v-.34a4.44,4.44,0,0,0,.07-1c0-1.22.06-2.45.06-3.68v-3.14c0-.82,0-1.63-.06-2.45-.07-1.23-.14-2.39-.21-3.62M577,512.26a1.88,1.88,0,0,0-.62.07,8.1,8.1,0,0,0,1.16-.27C577.42,512.12,577.21,512.19,577,512.26ZM614.8,445a1.32,1.32,0,0,1-.07.55c0,.82-.07,1.5-.14,2.32-.13,1.43-.2,2.86-.34,4.3-.07.27-.07.54-.13.81a23,23,0,0,1-.35,2.32,41.39,41.39,0,0,1-.61,4.1v.27c-.2.89-.41,1.77-.54,2.59-.28,1.3-.55,2.59-.89,3.82-.21,1-.48,1.91-.75,2.8-.34,1.16-.68,2.38-1.09,3.54-.28.89-.62,1.78-1,2.66-.41,1.1-.75,2.19-1.23,3.28a27.64,27.64,0,0,1-1.16,2.52c-.4,1-.88,2.05-1.36,3s-.89,1.57-1.3,2.39-1.09,1.84-1.63,2.73a23.48,23.48,0,0,1-1.44,2.18c-.54.89-1.16,1.71-1.7,2.46s-1.09,1.36-1.64,2a21.59,21.59,0,0,1-1.7,2,5.76,5.76,0,0,1-.89.89l-1,1c-.48.55-1,1-1.5,1.5-1,.89-2.12,1.71-3.14,2.53a22.39,22.39,0,0,1-2.18-1.3c-.14-.07-.21-.14-.35-.2-1.29-.89-2.52-1.84-3.75-2.87-.13-.13-.34-.27-.47-.41-1.16-.95-2.32-2-3.48-3.2a4.37,4.37,0,0,0-.55-.62c-1.09-1.16-2.18-2.45-3.27-3.75a6.18,6.18,0,0,0-.55-.82c-.82-1-1.64-2.18-2.45-3.34l-1-1.64c-.54-.82-1.09-1.7-1.63-2.59s-1.16-2.05-1.71-3.14c-.48-.82-.89-1.7-1.3-2.59-.54-1.16-1.09-2.32-1.56-3.55-.41-.88-.82-1.77-1.16-2.72-.48-1.23-.89-2.53-1.37-3.76-.34-1-.61-2-.95-2.93-.41-1.3-.75-2.66-1.1-4-.27-1-.54-2-.75-3-.34-1.43-.61-2.86-.88-4.29-.21-1-.41-2.05-.55-3.07-.27-1.5-.41-3-.61-4.57-.14-1-.27-2-.34-3-.07-.75-.14-1.44-.14-2.12-.14-2-.27-3.89-.34-5.86,0-2.26.07-4.37.14-6.55v-1c.13-2.11.27-4.16.47-6.21a7.12,7.12,0,0,0,.14-1.22c.27-2,.55-4,.89-5.87a3.34,3.34,0,0,1,.13-.82c.34-2,.82-4,1.3-5.93v-.28c.54-2,1.09-3.88,1.7-5.79,0-.14.07-.21.07-.34.62-1.85,1.3-3.62,2-5.39l.21-.62c.68-1.63,1.43-3.27,2.18-4.84l.41-.82c.82-1.5,1.63-3,2.45-4.43.14-.28.34-.55.48-.82.82-1.23,1.57-2.39,2.39-3.55a5,5,0,0,0,.54-.82c1-1.29,2-2.52,3.07-3.75a17.69,17.69,0,0,1,1.5-1.5c.62-.68,1.3-1.43,2-2.05,1.23-1.09,2.46-2,3.69-3a1.67,1.67,0,0,0,.47.28c.89.54,1.78,1.09,2.59,1.63.55.41,1,.75,1.51,1.16a55.91,55.91,0,0,1,4.36,3.75c4.09,4.1,4.64,4.57,1,1A53,53,0,0,1,597.2,382l1,1.44c1.23,1.7,2.39,3.48,3.48,5.32.14.2.27.47.41.68.34.55.61,1.09.89,1.57,1,1.84,1.91,3.68,2.79,5.59.35.68.69,1.37,1,2.05.07.13.14.34.2.48.89,2.18,1.71,4.43,2.53,6.75.2.68.48,1.36.68,2.11q1.13,3.8,2.05,7.78c.2.95.34,1.84.54,2.8.48,2.25.82,4.57,1.16,6.95.07.48.14,1,.21,1.5a10,10,0,0,0,.13,1.44c.34,3.14.55,6.34.62,9.62C614.93,440.43,614.87,442.75,614.8,445Z"/><ellipse class="cls-4" cx="567.57" cy="437.24" rx="47.26" ry="73.34" transform="translate(-18.08 24.53) rotate(-2.44)"/><ellipse class="cls-7" cx="563.48" cy="436.11" rx="33.36" ry="52.98"/><path class="cls-6" d="M286.06,433.41c-.07-1.23-.14-2.39-.2-3.62-.07-.75-.14-1.43-.14-2.18a1.68,1.68,0,0,1-.07-.55c-.07-.88-.2-1.77-.34-2.66-.2-1.57-.34-3.14-.61-4.64,0-.27-.07-.54-.07-.81-.14-.75-.34-1.57-.48-2.39-.27-1.43-.54-2.93-.89-4.44-.27-1-.54-2-.81-3.13-.35-1.37-.75-2.73-1.16-4.1-.35-1-.69-2-1-3.07-.41-1.29-.88-2.59-1.36-3.82-.41-1-.82-2-1.23-2.93-.48-1.23-1-2.39-1.64-3.61a13.33,13.33,0,0,0-.68-1.5c-.2-.41-.41-.82-.61-1.16-.62-1.1-1.23-2.19-1.78-3.21-.34-.55-.61-1.09-.95-1.64a12.63,12.63,0,0,0-.75-1.16c-.34-.54-.75-1.09-1.09-1.7a14.33,14.33,0,0,1-.89-1.3c-.54-.82-1.16-1.5-1.7-2.25a7,7,0,0,0-.55-.68c-.07-.14-.14-.21-.2-.34-.76-.89-1.57-1.84-2.32-2.66-.28-.34-.62-.68-.89-1l-.61-.61c-.21-.21-.41-.48-.62-.68-.68-.69-1.36-1.3-2-1.91-.35-.28-.62-.55-1-.82a1.2,1.2,0,0,0-.48-.34l-.61-.62c-.62-.47-1.3-.95-1.91-1.43s-1-.61-1.37-.95c-.13-.07-.2-.14-.34-.21a2.69,2.69,0,0,0-.27-.2c-.61-.41-1.3-.82-1.91-1.16s-1.3-.75-2-1c-.07-.06-.13-.06-.2-.13s-.14-.07-.21-.07a15,15,0,0,0-1.57-.75c-.61-.27-1.29-.55-2-.82-.28-.07-.55-.21-.89-.27-.14-.07-.27-.07-.41-.14s-.48-.2-.75-.27c-.75-.21-1.43-.41-2.18-.55-.48-.13-1-.2-1.5-.34a.83.83,0,0,1-.41-.07.58.58,0,0,1-.34-.07c-.82-.13-1.71-.2-2.53-.27a19.87,19.87,0,0,0-2-.07,2.43,2.43,0,0,0-.69-.06c-.61.06-1.22.06-1.84.06l-41.52,2.25h-.41c-26,1.57-46.11,34.45-45.43,75,.75,41.88,23.47,76.33,50.62,76.74a19.7,19.7,0,0,0,3.54-.21l-1,.21,42-2.25a31.87,31.87,0,0,0,5.59-.89c.55-.14,1.09-.34,1.64-.48a38.46,38.46,0,0,0,3.82-1.36c.61-.28,1.16-.55,1.7-.82,1.37-.68,2.66-1.43,4-2.25.34-.27.68-.41,1-.68a41.21,41.21,0,0,0,4.71-3.82,1.05,1.05,0,0,0,.27-.21l1.84-1.84c.48-.55,1-1.09,1.5-1.64a.53.53,0,0,0,.28-.27,32.42,32.42,0,0,0,2.66-3.27c.13-.14.2-.28.27-.35a6.12,6.12,0,0,0,.48-.75c.47-.68,1-1.36,1.5-2.11.34-.48.68-1.09,1-1.64.21-.27.34-.54.55-.82a3.11,3.11,0,0,0,.34-.61c.61-1,1.23-2,1.77-3.14l.41-.82c.14-.34.27-.61.41-.88a13.36,13.36,0,0,0,.68-1.44c.48-1,1-2.11,1.43-3.13.07-.14.07-.28.14-.41s.21-.41.27-.62c.28-.75.55-1.5.82-2.25.41-1,.82-2.18,1.16-3.27,0-.07.07-.07.07-.14a.24.24,0,0,1,.07-.2c.34-1,.61-2.05.88-3.07s.55-2,.82-3a.42.42,0,0,0,.07-.28.23.23,0,0,0,.07-.2c.27-1.23.55-2.39.82-3.62.13-.75.27-1.57.48-2.32a3.82,3.82,0,0,1,.13-.88,2,2,0,0,1,.14-.62c.2-1.29.41-2.66.54-4,.07-.48.14-1,.21-1.5s.07-.75.14-1.16a14.05,14.05,0,0,0,.13-1.5c.14-1.5.27-3.07.34-4.64v-.34a4.44,4.44,0,0,0,.07-1c0-1.22.07-2.45.07-3.68v-3.14C286.13,435,286.13,434.23,286.06,433.41Zm-81.7,78.85a1.82,1.82,0,0,0-.61.07,8.1,8.1,0,0,0,1.16-.27ZM242.15,445a1.52,1.52,0,0,1-.06.55c0,.82-.07,1.5-.14,2.32-.14,1.43-.21,2.86-.34,4.3-.07.27-.07.54-.14.81a23.09,23.09,0,0,1-.34,2.32c-.14,1.37-.34,2.73-.61,4.1v.27c-.21.89-.41,1.77-.55,2.59-.27,1.3-.55,2.59-.89,3.82-.2,1-.47,1.91-.75,2.8-.34,1.16-.68,2.38-1.09,3.54-.27.89-.61,1.78-1,2.66-.41,1.1-.75,2.19-1.23,3.28a27.64,27.64,0,0,1-1.16,2.52c-.41,1-.89,2.05-1.36,3s-.89,1.57-1.3,2.39-1.09,1.84-1.64,2.73a23.39,23.39,0,0,1-1.43,2.18c-.55.89-1.16,1.71-1.71,2.46s-1.09,1.36-1.63,2a21.69,21.69,0,0,1-1.71,2,5.29,5.29,0,0,1-.88.89l-1,1c-.48.55-1,1-1.5,1.5-1,.89-2.11,1.71-3.14,2.53a22.39,22.39,0,0,1-2.18-1.3c-.14-.07-.2-.14-.34-.2-1.3-.89-2.52-1.84-3.75-2.87-.14-.13-.34-.27-.48-.41-1.16-.95-2.32-2-3.48-3.2a4.27,4.27,0,0,0-.54-.62c-1.09-1.16-2.19-2.45-3.28-3.75a6.07,6.07,0,0,0-.54-.82c-.82-1-1.64-2.18-2.46-3.34l-1-1.64c-.55-.82-1.09-1.7-1.64-2.59s-1.16-2.05-1.7-3.14c-.48-.82-.89-1.7-1.3-2.59-.55-1.16-1.09-2.32-1.57-3.55-.41-.88-.82-1.77-1.16-2.72-.48-1.23-.89-2.53-1.36-3.76-.34-1-.62-2-1-2.93-.41-1.3-.75-2.66-1.09-4-.27-1-.55-2-.75-3-.34-1.43-.61-2.86-.89-4.29-.2-1-.41-2.05-.54-3.07-.28-1.5-.41-3-.62-4.57-.13-1-.27-2-.34-3-.07-.75-.13-1.44-.13-2.12-.14-2-.28-3.89-.35-5.86,0-2.26.07-4.37.14-6.55v-1c.14-2.11.27-4.16.48-6.21a7.12,7.12,0,0,0,.14-1.22c.27-2,.54-4,.88-5.87a3.36,3.36,0,0,1,.14-.82c.34-2,.82-4,1.29-5.93v-.28c.55-2,1.1-3.88,1.71-5.79,0-.14.07-.21.07-.34.61-1.85,1.29-3.62,2-5.39.06-.21.13-.41.2-.62.68-1.63,1.43-3.27,2.18-4.84.14-.27.28-.55.41-.82.82-1.5,1.64-3,2.46-4.43.13-.28.34-.55.48-.82.81-1.23,1.56-2.39,2.38-3.55a5.11,5.11,0,0,0,.55-.82c1-1.29,2-2.52,3.07-3.75a16.33,16.33,0,0,1,1.5-1.5c.61-.68,1.3-1.43,2-2.05,1.23-1.09,2.45-2,3.68-3a1.71,1.71,0,0,0,.48.28c.88.54,1.77,1.09,2.59,1.63.55.41,1,.75,1.5,1.16,1.5,1.16,2.93,2.39,4.37,3.75,4.09,4.1,4.63,4.57,1,1a53,53,0,0,1,4.77,5.52l1,1.44c1.23,1.7,2.39,3.48,3.48,5.32.13.2.27.47.41.68.34.55.61,1.09.88,1.57,1,1.84,1.91,3.68,2.8,5.59.34.68.68,1.37.95,2.05.07.13.14.34.21.48.89,2.18,1.7,4.43,2.52,6.75.21.68.48,1.36.69,2.11q1.13,3.8,2,7.78c.21.95.34,1.84.55,2.8.47,2.25.82,4.57,1.16,6.95.07.48.13,1,.2,1.5a10,10,0,0,0,.14,1.44c.34,3.14.54,6.34.61,9.62C242.29,440.43,242.22,442.75,242.15,445Z"/><ellipse class="cls-4" cx="194.93" cy="437.24" rx="47.26" ry="73.34" transform="translate(-18.42 8.68) rotate(-2.44)"/><ellipse class="cls-7" cx="190.84" cy="436.11" rx="33.36" ry="52.98"/><path class="cls-7" d="M417.81,85.07H82.72V420.16h51.52c2.61-47.33,30.43-83.93,64.92-83.38,34,.54,62.82,37,67.92,83.38H417.81Z"/><path class="cls-8" d="M166.5,248.92v-23.1h9.74c2.56,0,4.48.71,5.68,2.06a8,8,0,0,1,1.85,5.41,7,7,0,0,1-2.06,5.33,8,8,0,0,1-5.62,2h-6.68V249H166.5Zm3-10.66h6.19a4.59,4.59,0,0,0,5.19-5,5.45,5.45,0,0,0-1.21-3.77,4.77,4.77,0,0,0-3.77-1.35h-6.4Z"/><path class="cls-8" d="M206.87,249.28c-3.62,0-6.32-.92-8-2.84s-2.63-4.91-2.63-9.1.86-7.18,2.63-9.1,4.41-2.84,8-2.84,6.33.92,8,2.84,2.63,4.9,2.63,9.1-.86,7.18-2.63,9.1S210.5,249.28,206.87,249.28Zm0-2.49a8.73,8.73,0,0,0,4.34-.92,5.41,5.41,0,0,0,2.56-3,18.51,18.51,0,0,0,0-11.09,5.91,5.91,0,0,0-2.56-3,9.56,9.56,0,0,0-4.34-.93,8.71,8.71,0,0,0-4.33.93,5.39,5.39,0,0,0-2.56,3,18.51,18.51,0,0,0,0,11.09,5.93,5.93,0,0,0,2.56,3A8.71,8.71,0,0,0,206.87,246.79Z"/><path class="cls-8" d="M231.33,248.92v-23.1h10.16c2.49,0,4.34.64,5.48,1.92a7.67,7.67,0,0,1,1.7,5.26,7.39,7.39,0,0,1-1.2,4.27,6.24,6.24,0,0,1-3.7,2.27,3,3,0,0,1,1.07,1,7.43,7.43,0,0,1,.78,1.49l3,7h-3l-2.92-6.69a3.84,3.84,0,0,0-1.14-1.56,4.4,4.4,0,0,0-2.34-.5h-4.91V249h-3Zm2.91-11h6.4a5.52,5.52,0,0,0,3.7-1.14,4.71,4.71,0,0,0,1.35-3.77c0-3.2-1.57-4.83-4.62-4.83h-6.76v9.74Z"/><path class="cls-8" d="M266.37,248.92V228.1H258.7v-2.35H277v2.35h-7.75v20.82Z"/><path class="cls-8" d="M284,248.92l8.82-23.1h3.48l8.75,23.1h-3l-2.42-6.32h-10l-2.42,6.32Zm6-8.67h9l-4.55-11.87Z"/><path class="cls-8" d="M316.49,248.92v-23.1h2.91v20.83h12.3v2.27Z"/><path class="cls-8" d="M267.3,260.3a43.39,43.39,0,0,1-21.54,17.27c-35.12,12.66-68.88-21.68-56.16-56.65,10.59-28.86,47.27-38.39,70.23-17.77A42.56,42.56,0,0,1,268.51,214a44.33,44.33,0,0,0-21-17.34c-30.14-11.73-62,12.86-57.87,45C195.36,280.34,244.41,291.79,267.3,260.3Z"/><polyline class="cls-9" points="271.93 392.59 384.74 392.59 384.74 115.43 107.58 115.43 107.58 392.59 126.33 392.59"/><path class="cls-3" d="M658.77,85.07h-241V420.16h91.84c2.61-47.33,30.43-83.93,64.92-83.38,34,.54,62.82,37,67.92,83.38h16.28Z"/><circle class="cls-4" cx="720.06" cy="331.28" r="18.29"/><circle class="cls-4" cx="841.27" cy="331.28" r="18.29"/><path class="cls-3" d="M658,421.8H906.37a32.44,32.44,0,0,0,8.34-10.62h10.86A14.45,14.45,0,0,0,940,396.73V385.91a14.45,14.45,0,0,0-14.45-14.45h-1.82c.61-31.91-1.51-67.48-28.46-89-22.82-18.22-57-8.43-76-31.48-7.65-7.43-14-15.72-20.64-23.6a221.23,221.23,0,0,1-31-48.81C756.74,155.2,748.27,126,717.07,126l-231.93,0"/><path class="cls-9" d="M417.59,125.78s62.5,0,62.6,0c10.6-.29,22.15,4.21,30.46,10.15,14.54,10.4,23,26.88,28.77,43.38,7.53,21.51,16,43.21,26,63.64,6.53,13.33,13.37,31.53,29.88,34.68,12.92,2.48,23.85-1.22,36.8,5.17,23.42,11.57,32.4,36.15,35.82,60.56,1.73,12.36,5.41,62.77-9.15,75.43"/><circle class="cls-4" cx="701.77" cy="331.28" r="18.29"/><circle class="cls-4" cx="882.36" cy="331.28" r="18.29"/><line class="cls-10" x1="720.06" y1="296.33" x2="902.09" y2="296.33"/><path class="cls-11" d="M768.88,254H605.38a20.13,20.13,0,0,1-18.63-11.76l-35.11-81.49c-2.77-6.42,2.29-13.42,9.69-13.42H720.12a25.21,25.21,0,0,1,22.06,12.44l18.87,33.43,22,38.91C788.61,242.06,780.9,254,768.88,254Z"/><g class="cls-12"><path class="cls-8" d="M726.28,211.54h-40c-5.9,0-1,4.47-1.62,10.33L678.47,303l68.41-1.62-9.11-79.28A11.53,11.53,0,0,0,726.28,211.54Z"/><line class="cls-13" x1="744.14" y1="301.4" x2="737.77" y2="222.06"/><path class="cls-14" d="M678,285.62c-8,19.8-21.49,54-21.49,54l-13-1.55L656,278.67a11.61,11.61,0,0,1,16.17-7.92h0A11.6,11.6,0,0,1,678,285.62Z"/><circle class="cls-14" cx="648" cy="343.27" r="10.7" transform="translate(-78.52 442.82) rotate(-35.71)"/><path class="cls-14" d="M652.52,353s3.82,3,6.27-2,2.8-12.94-6.89-17.65Z"/><path class="cls-14" d="M668.78,231l-10.42,44.22a11,11,0,0,0,6,12.31h0a10.29,10.29,0,0,0,14.25-5.87L693.29,239Z"/><path class="cls-8" d="M671.81,220.31l-35.42,106.2,27.41,6.79L699,228.6a14.22,14.22,0,0,0-7-15.42h0A14.25,14.25,0,0,0,671.81,220.31Z"/><path class="cls-8" d="M742.9,220.31l35.41,106.2-27.4,6.79L715.75,228.6a14.24,14.24,0,0,1,7-15.42h0A14.25,14.25,0,0,1,742.9,220.31Z"/><line class="cls-13" x1="675.69" y1="297.89" x2="693.81" y2="236.48"/><line class="cls-15" x1="803.72" y1="275.71" x2="802.75" y2="276.7"/><path class="cls-5" d="M723.8,183.94a5.77,5.77,0,1,0,6-5.57A5.77,5.77,0,0,0,723.8,183.94Z"/><path class="cls-14" d="M722.53,192.87l-.42,20.56c-.15,5.78-4.13,6.07-9.82,5.88h0c-4.85-.17-9-1.74-9.4-6.57l-.3-22.25Z"/><polygon class="cls-5" points="722.2 209.54 707.16 197.44 722.45 197.78 722.2 209.54"/><path class="cls-14" d="M712.64,200.74l8.07.28a10.72,10.72,0,0,0,11.08-10.7l0-14.86a14.07,14.07,0,0,0-13.59-14.09h0c-7.76-.27-15.64,5.76-15.9,13.53l.26,15.59A10.42,10.42,0,0,0,712.64,200.74Z"/><path class="cls-5" d="M704.12,183.44s11,1.62,5.49-10.86c0,0,2.37-4,9.89-1.64,13.73,4.3,20.07-11.69,20.07-11.69-3.4,2-8,2-11.8,1.94-5-.09-10.07-.95-15.11-1.17a37.32,37.32,0,0,0-7.69.37c-2.16.35-4.56.94-6,2.8s-1.67,4.5-1.76,6.65C696.72,176.34,699.49,185.89,704.12,183.44Z"/><path class="cls-14" d="M695.08,183.24a5.77,5.77,0,1,0,6-5.56A5.77,5.77,0,0,0,695.08,183.24Z"/><path class="cls-16" d="M702.8,185.23s.15-4.18-3.87-3.66"/><polyline class="cls-16" points="724.51 185.64 724.72 188.66 722.87 188.6"/><path class="cls-5" d="M726.77,183.4a1.21,1.21,0,1,0,1.25-1.16A1.21,1.21,0,0,0,726.77,183.4Z"/><path class="cls-5" d="M717,183.06a1.21,1.21,0,0,0,2.41.09,1.19,1.19,0,0,0-1.16-1.25A1.21,1.21,0,0,0,717,183.06Z"/><path class="cls-5" d="M717.59,175.91s3.13-.36,3.15,1.3c0,0,0,1.14-2.75,1.38s-3.43,0-3.67-1.07S716.13,175.93,717.59,175.91Z"/><path class="cls-5" d="M728.82,176.2s-2.57-.32-2.8,1.25c0,0-.13,1.06,2.13,1.28s3-.16,3.21-1S730.05,176.22,728.82,176.2Z"/><path class="cls-8" d="M725.36,192.4s-4,2.92-6.65-1.17Z"/><path class="cls-14" d="M724.81,211.53l-26.07-.14s1.72,11.76,17.91,10.81a15.94,15.94,0,0,0,6.13-1.43C725.72,219.33,728.42,216.68,724.81,211.53Z"/><path class="cls-13" d="M684.33,253.51a41.93,41.93,0,1,1,82.31-.77"/></g><circle class="cls-14" cx="684.42" cy="243.54" r="10.7" transform="translate(-38.02 319.81) rotate(-25.61)"/><path class="cls-14" d="M694.76,240.78s3.66-3.23-.89-6.52-12.25-5-18.57,3.68Z"/><circle class="cls-14" cx="767.86" cy="243.54" r="10.7" transform="translate(216.3 830.65) rotate(-64.39)"/><path class="cls-14" d="M757.52,240.78s-3.66-3.23.89-6.52,12.24-5,18.57,3.68Z"/><rect class="cls-8" x="678.89" y="379.19" width="256.29" height="24.31" rx="8.42"/><path class="cls-11" d="M468.71,154.17,524.46,237c5.74,8.52-1.76,18.95-12.71,17.7L458.67,254c-7.32-.84-12.72-11.5-12-18l-2.61-77.45C445.37,147.28,462.06,144.3,468.71,154.17Z"/></g><path class="cls-9" d="M768.88,254H605.38a20.13,20.13,0,0,1-18.63-11.76l-35.11-81.49c-2.77-6.42,2.29-13.42,9.69-13.42H720.12a25.21,25.21,0,0,1,22.06,12.44l18.87,33.43,22,38.91C788.61,242.06,780.9,254,768.88,254Z"/></g></g></svg>