<svg width="28" height="32" viewBox="0 0 28 32" fill="none" xmlns="http://www.w3.org/2000/svg">
<path d="M11.0815 25.1536V6.64893H18.7349C20.746 6.64893 22.2543 7.21828 23.204 8.30009C24.1537 9.43884 24.6565 10.8623 24.6565 12.6274C24.6565 14.4494 24.0979 15.8728 23.0365 16.8977C21.975 17.9226 20.4667 18.4919 18.6232 18.4919H13.372V25.2105H11.0815V25.1536ZM13.4278 16.613H18.288C19.6288 16.613 20.6902 16.2714 21.3605 15.5312C22.0309 14.791 22.366 13.8231 22.366 12.6274C22.366 11.3178 22.0309 10.2929 21.4164 9.60965C20.746 8.86946 19.7963 8.52786 18.4556 8.52786H13.4278V16.613Z" fill="#7394A5"/>
<path fill-rule="evenodd" clip-rule="evenodd" d="M27.5463 5.24674C24.9737 2.85089 21.5233 1.38521 17.7305 1.38521C9.7743 1.38521 3.3245 7.83501 3.3245 15.7912C3.3245 23.7475 9.7743 30.1973 17.7305 30.1973C21.5232 30.1973 24.9735 28.7317 27.5461 26.3359C24.6551 29.5566 20.4598 31.5825 15.7912 31.5825C7.06997 31.5825 0 24.5125 0 15.7912C0 7.06997 7.06997 0 15.7912 0C20.4599 0 24.6553 2.02599 27.5463 5.24674Z" fill="#7394A5"/>
</svg>
