<svg width="540" height="288" viewBox="0 0 540 288" fill="none" xmlns="http://www.w3.org/2000/svg">
<path d="M0 185.492V110.087H31.7861C40.1387 110.087 46.4032 112.407 50.3475 116.815C54.2917 121.456 56.3798 127.256 56.3798 134.449C56.3798 141.873 54.0599 147.674 49.6516 151.85C45.2433 156.026 38.9788 158.346 31.3222 158.346H9.51262V185.724H0V185.492ZM9.74458 150.69H29.9302C35.4986 150.69 39.9069 149.298 42.6911 146.282C45.4753 143.265 46.8672 139.321 46.8672 134.449C46.8672 129.112 45.4752 124.936 42.923 122.152C40.1388 119.136 36.1945 117.744 30.6261 117.744H9.74458V150.69Z" fill="#7394A5"/>
<path d="M131.785 186.653C119.952 186.653 111.136 183.636 105.567 177.372C99.7668 171.108 96.9824 161.363 96.9824 147.674C96.9824 134.217 99.7668 124.24 105.567 117.976C111.368 111.711 119.952 108.695 131.785 108.695C143.618 108.695 152.434 111.711 158.003 117.976C163.571 124.24 166.587 133.985 166.587 147.674C166.587 161.131 163.803 171.108 158.003 177.372C152.434 183.636 143.618 186.653 131.785 186.653ZM131.785 178.532C137.585 178.532 142.226 177.604 145.938 175.516C149.65 173.66 152.435 170.412 154.291 165.771C156.147 161.363 157.075 155.33 157.075 147.674C157.075 140.017 156.147 133.985 154.291 129.577C152.435 125.168 149.65 121.92 145.938 119.832C142.226 117.976 137.585 116.816 131.785 116.816C125.984 116.816 121.344 117.744 117.632 119.832C113.92 121.688 111.136 124.936 109.279 129.577C107.423 133.985 106.495 140.017 106.495 147.674C106.495 155.33 107.423 161.363 109.279 165.771C111.136 170.18 113.92 173.428 117.632 175.516C121.344 177.604 125.984 178.532 131.785 178.532Z" fill="#7394A5"/>
<path d="M211.599 185.492V110.087H244.777C252.898 110.087 258.93 112.175 262.642 116.351C266.355 120.528 268.211 126.328 268.211 133.521C268.211 139.089 266.819 143.729 264.267 147.442C261.714 151.154 257.538 153.474 252.202 154.866C253.826 155.794 254.986 156.954 255.682 158.114C256.61 159.274 257.306 160.899 258.234 162.987L267.979 185.724H258.234L248.721 163.915C247.793 161.595 246.401 159.971 245.009 158.811C243.617 157.882 241.065 157.186 237.352 157.186H221.343V185.724H211.599V185.492ZM221.111 149.53H241.993C247.097 149.53 251.042 148.37 254.058 145.818C257.074 143.265 258.466 139.089 258.466 133.521C258.466 123.08 253.362 117.744 243.385 117.744H221.343V149.53H221.111Z" fill="#7394A5"/>
<path d="M325.983 185.493V117.512H300.925V109.855H360.785V117.512H335.495V185.493H325.983Z" fill="#7394A5"/>
<path d="M383.523 185.492L412.294 110.087H423.662L452.201 185.492H442.456L434.567 164.843H401.853L393.964 185.492H383.523ZM403.013 157.186H432.479L417.63 118.44L403.013 157.186Z" fill="#7394A5"/>
<path d="M489.555 185.492V110.087H499.067V178.068H539.206V185.492H489.555Z" fill="#7394A5"/>
<path d="M328.999 222.615C312.526 248.369 287.468 268.554 258.698 278.995C144.082 320.294 33.8745 208.23 75.4054 94.0781C109.976 -0.1206 229.696 -31.2108 304.638 36.074C316.006 46.2827 325.519 58.3475 332.944 71.5725C316.703 46.2827 292.573 25.8653 264.499 14.9605C166.124 -23.3222 62.1804 56.9555 75.6374 161.827C94.1987 288.044 254.29 325.399 328.999 222.615Z" fill="#7394A5"/>
</svg>
