<svg xmlns="http://www.w3.org/2000/svg" viewBox="0 0 977.81 542.93"><defs><style>.cls-1{fill:#cadbe0;}.cls-11,.cls-2{fill:#fff;}.cls-3{fill:#7097c4;}.cls-4{fill:#f29e9b;}.cls-5,.cls-9{fill:none;}.cls-11,.cls-12,.cls-13,.cls-5,.cls-9{stroke:#4c2e3c;stroke-width:1.5px;}.cls-11,.cls-12,.cls-13,.cls-5{stroke-miterlimit:10;}.cls-6{fill:#ffbe83;}.cls-7{fill:#4c2e3c;}.cls-13,.cls-8{fill:#9ebae1;}.cls-9{stroke-linecap:round;stroke-linejoin:round;}.cls-10{fill:#100809;}.cls-12{fill:#f19d61;}</style></defs><g id="Layer_2" data-name="Layer 2"><g id="Layer_1-2" data-name="Layer 1"><path class="cls-1" d="M3.4,300.52C-6,241.93,4.38,153.46,31.21,102,63.09,41,144.3,11.43,197,8.36,271.92,4,349.83,28,433.58,42.67c54.92,9.65,122.08,9.77,177.21.84C674.48,32.91,726.48,2.48,791,.17c52.73-2.08,120.11,15,151.74,60.65,36,52,39.26,129.31,31.83,190.12C963.86,341.67,907.29,542.71,775,542.71c-284.38,0-284.38.8-568.29-4.66-41.43-.8-85.67,4.92-124.15-1.32-36.44-5.92-33.82-37-40.64-61.81-6.18-21.38-12.13-42.49-17-62.25C16.07,373.31,9.21,336.69,3.4,300.52Z"/><rect class="cls-2" x="349.88" y="306.41" width="24.17" height="164.85" transform="translate(723.94 777.68) rotate(-180)"/><path class="cls-3" d="M311,481.14H412.46a7.6,7.6,0,1,0,0-15.2H311a7.6,7.6,0,0,0,0,15.2Z"/><circle class="cls-3" cx="361.97" cy="492.78" r="16.34"/><circle class="cls-3" cx="308.94" cy="492.78" r="16.34"/><path class="cls-3" d="M245.64,262.8c8.38,87.75,91.79,120.14,158.62,97.54S460,272.55,460,272.55,236.34,165.42,245.64,262.8Z"/><path class="cls-3" d="M428.43,272.72S414.87,136.3,390.49,114.41s-100-12.79-118.47-6.83-26.59,151.84-26.59,151.84"/><circle class="cls-3" cx="409.1" cy="492.78" r="16.34"/><path class="cls-2" d="M431.76,146.77s-71.28-13.64-54.09,5.32,46.18,56.53,46.18,56.53,36.77-11.67,45-27.93S431.76,146.77,431.76,146.77Z"/><path class="cls-4" d="M433.6,324.93c-.79,66.76-1.82,145-1.82,145h19.87l11.64-145.79A239.45,239.45,0,0,1,433.6,324.93Z"/><polygon class="cls-2" points="431.78 466.48 432.42 420.83 455.57 420.83 451.93 466.73 431.78 466.48"/><line class="cls-5" x1="432.42" y1="428.61" x2="454.92" y2="428.61"/><path class="cls-6" d="M460.19,466.67V483.6l30.46,7a16.83,16.83,0,0,1,10.83,14.54l.34,3.82-84.58-.16,7.63-42.44Z"/><line class="cls-5" x1="500.55" y1="500.73" x2="418.69" y2="500.73"/><path class="cls-5" d="M428.31,484.1a8.81,8.81,0,1,0,8.8-8.81A8.8,8.8,0,0,0,428.31,484.1Z"/><line class="cls-5" x1="475.37" y1="487.1" x2="470.07" y2="492.55"/><line class="cls-5" x1="467.43" y1="485.28" x2="462.13" y2="490.73"/><path class="cls-4" d="M386.69,316.33c-3.08,68.52-7.2,156.63-7.2,156.63h19.88l20.16-149.13A155.4,155.4,0,0,1,386.69,316.33Z"/><polygon class="cls-2" points="379.66 469.43 381.78 423.78 406.37 423.78 399.81 469.68 379.66 469.43"/><line class="cls-5" x1="381.79" y1="432.2" x2="404.29" y2="432.2"/><path class="cls-6" d="M404.86,469.72v16.92l30.47,7a16.83,16.83,0,0,1,10.82,14.54l.34,3.82-84.58-.16,7.63-42.43Z"/><line class="cls-5" x1="445.22" y1="503.77" x2="363.36" y2="503.77"/><path class="cls-5" d="M373,487.14a8.81,8.81,0,1,0,8.81-8.8A8.8,8.8,0,0,0,373,487.14Z"/><line class="cls-5" x1="420.04" y1="490.14" x2="414.74" y2="495.6"/><line class="cls-5" x1="412.11" y1="488.32" x2="406.81" y2="493.78"/><path class="cls-7" d="M275.79,226.23s-6.14,1.14-12.22,2.51c-6,1.69-12,3.58-12,3.58s-1.27,14.7,8.78,21.06c0,0,6.74-2.17,13.46-4.4,6.67-2.43,13.27-5,13.27-5l-5.65-8.83C278.61,230.77,275.79,226.23,275.79,226.23Z"/><path class="cls-2" d="M316.61,193.22c-9.77,17.39-30.63,22.3-46.59,32.12-3.07,2.45-4,6.44-3.37,10.59a20.74,20.74,0,0,0,5.81,11.41c8,7.41,17.81,9,27.48,7.29a52.25,52.25,0,0,0,9.54-2.65c25.6-5.77,20.69-34,8.7-50.76C317.55,198.21,317.07,195.56,316.61,193.22Z"/><path class="cls-5" d="M272.34,248c10.63,6.82,23.15,8.14,35.16,5.65a57,57,0,0,0,11.67-3.76c15.9-7,25.72-24.22,23.26-41.4-1.23-8.59-7.36-20.87-18.33-19"/><path class="cls-5" d="M324.1,189.48c-8.09,6.51-15.37,14-23.56,20.34-5.64,4.4-12.44,7-18.93,9.81-5,2.2-13.17,4-15.4,9.74"/><path class="cls-5" d="M431.76,146.77s-71.28-13.64-54.09,5.32,46.18,56.53,46.18,56.53,36.77-11.67,45-27.93S431.76,146.77,431.76,146.77Z"/><polygon class="cls-8" points="323.41 303.82 414.33 286.53 403.21 176.42 379.84 141.95 355.06 145.71 323.41 303.82"/><path class="cls-6" d="M341.52,75.26c1.9,14.16-4.43,28.09-13.82,38.39C320.11,122,308.07,128,297,130.27c-.63.13-5.6.59-5.86,1.15,4.91-10.2,11.15-18.84,13.91-30.26,2.55-10.53,3.63-28.65,11.82-36.69,3.31-3.25,7.93-4.5,14.27-1.72C337.72,65.61,340.81,70,341.52,75.26Z"/><path class="cls-6" d="M388.24,58.21s-39.48-6.75-53,13.85c-10,15.29-.83,33.22,19.8,41.05,19.66,7.45,13.27-47.55,13.27-47.55Z"/><path class="cls-6" d="M370.06,57.89s35.72-5.48,37,17.71c.87,16-24.39,21.64-24.39,21.64Z"/><path class="cls-6" d="M383.55,98.74a9.55,9.55,0,1,0,10.19-8.86A9.55,9.55,0,0,0,383.55,98.74Z"/><path class="cls-4" d="M380.75,124.63l-1.32,20.78c-.45,7.3-3.44,11-10.62,10.46h0c-6.13-.43-13.42-4-13.76-10.16l3.66-32.6Z"/><polygon class="cls-7" points="379.84 141.95 355.55 118.17 380.93 122.5 379.84 141.95"/><path class="cls-4" d="M374.42,128h0c12.28,0,22.42-9.63,22.79-19.66l.72-23.66a23.31,23.31,0,0,0-21.67-24.1h0c-12.84-.89-26.23,8.64-27.12,21.48l-.38,19C348.47,115.8,359.73,127,374.42,128Z"/><path class="cls-6" d="M363.62,75.29c3.28,14.26-9.75,22.91-9.75,22.91L340.93,83.11S360.92,63.57,363.62,75.29Z"/><path class="cls-4" d="M337.3,101.42a9.55,9.55,0,1,0,10.2-8.87A9.56,9.56,0,0,0,337.3,101.42Z"/><path class="cls-9" d="M350,105.14s.48-6.91-6.21-6.28"/><path class="cls-6" d="M360,77.59s27.78-7.64,37.95-1c0,0-7.22-21.61-37.95-16.05s-13.17,23-13.17,23Z"/><polyline class="cls-9" points="384 97.24 385.04 105.88 382.01 105.99"/><path class="cls-6" d="M372,87s6.71-1.15,7,1.6c0,0,.16,1.86-5.7,2.75s-7.43.59-8.13-1.11S368.84,87.27,372,87Z"/><path class="cls-6" d="M391.87,87.07s-5.14-.42-5.62,2.07c0,0-.29,1.68,4.21,1.93s5.89-.3,6-1.72C396.54,87.66,394.31,87,391.87,87.07Z"/><path class="cls-7" d="M388.88,97.76a2.17,2.17,0,1,0,2.25-2.1A2.18,2.18,0,0,0,388.88,97.76Z"/><path class="cls-7" d="M370.66,97.17a2.17,2.17,0,1,0,2.24-2.1A2.18,2.18,0,0,0,370.66,97.17Z"/><path class="cls-2" d="M382.63,116.37c-3.71,3.29-10.56-3.75-10.56-3.75S385.18,114.11,382.63,116.37Z"/><path class="cls-10" d="M365.38,175.71a66.11,66.11,0,0,0-8.68-45.65l-15.43,17.51S336.59,176.3,365.38,175.71Z"/><path class="cls-2" d="M309,309.44c10.68,6.37,19.19,7.69,27.19,8.42,6.15.56,12.39,1,18.57,1.22a62.39,62.39,0,0,0,9.67-.57l.94-142.8-24.11-28.14L324.89,165c-8.12,8.63-12.64,20-15.88,28.9"/><path class="cls-2" d="M331.59,219.56l9.68-72s-31.57,10-44,47c-5.53,16.4,4.88-16.48-2.37,6.78C294.87,216.4,307.35,233.33,331.59,219.56Z"/><path class="cls-11" d="M401.2,260c16,.31,31.72-3.26,47.59-4.37-7.16-22.54-16.33-45.2-21.69-61.08-12.46-36.95-44-47-44-47L398,212.23Z"/><line class="cls-5" x1="414.33" y1="216.4" x2="427.1" y2="194.53"/><path class="cls-2" d="M393.3,312.86a106.06,106.06,0,0,0,26.21,3.55,48,48,0,0,0,6.73-2.38c-1.58-70.16-20.89-131.79-20.89-131.79-.33-4.06,6.23-7.47,3.52-10.5l-17.74-19.93-11.27,23.9s8.32,72.34,13.41,137.14Z"/><path class="cls-5" d="M407.06,185.85A722,722,0,0,1,423.77,270"/><path class="cls-10" d="M380.21,135.23c-2,11.19-.35,40.48-.35,40.48s13.06-1.71,11.27-23.9Z"/><path class="cls-11" d="M261.83,286.16a24,24,0,0,0-4.64-.55c-1.63-.18-3.25-.43-4.86-.72-3.19-.58-6.25-1.66-9.42-2.29-.4-.08-.68.48-.29.7l.24.11a.63.63,0,0,0-.7.56c-2.55,14.48-5.31,28.94-7.65,43.46-2.31,14.35-4.83,28.67-7.31,43q-7.53,43.36-14.88,86.77L208.2,481.4q-1,6-2,12a113.83,113.83,0,0,0-1.64,11.92.43.43,0,0,0,.2.63,14.26,14.26,0,0,0,3.37.53c.57,0,1.14,0,1.7,0s1.29.07,1.58-.43a.42.42,0,0,0,0-.42c.06-.06.13-.1.15-.2,7.4-28.21,14.66-56.46,21.24-84.88,3.31-14.3,6.5-28.62,9.24-43,2.71-14.25,5.41-28.51,8.53-42.67,3.48-15.88,7.21-31.69,11.3-47.43A.65.65,0,0,0,261.83,286.16Z"/><path class="cls-11" d="M555,286.16a23.83,23.83,0,0,1,4.64-.55c1.63-.18,3.24-.43,4.86-.72,3.19-.58,6.25-1.66,9.41-2.29.41-.08.69.48.3.7l-.24.11a.63.63,0,0,1,.7.56c2.55,14.48,5.31,28.94,7.65,43.46,2.31,14.35,4.82,28.67,7.31,43q7.51,43.36,14.88,86.77l4.11,24.21,2,12a116.55,116.55,0,0,1,1.64,11.92.43.43,0,0,1-.2.63,14.35,14.35,0,0,1-3.37.53c-.57,0-1.14,0-1.71,0s-1.28.07-1.58-.43a.45.45,0,0,1,0-.42c-.06-.06-.13-.1-.16-.2-7.39-28.21-14.65-56.46-21.23-84.88-3.31-14.3-6.5-28.62-9.24-43-2.72-14.25-5.42-28.51-8.53-42.67-3.49-15.88-7.22-31.69-11.3-47.43A.65.65,0,0,1,555,286.16Z"/><path class="cls-11" d="M630.34,480.92Q621,427.75,611.45,374.63c-3.16-17.68-6.25-35.37-9.41-53.05q-2.38-13.29-4.78-26.58c-1.59-8.85-3-17.75-4.93-26.53-.18-.84-1.16-.7-1.48-.1h0c-6.52-.12-13-.14-19.56-.23-.48,0-28.32.66-34.18.14-10.44-.93-20.9-.27-31.35-.6-5.32-.17-10.66,0-16,0s-10.84.06-16.26,0c-10.65-.13-21.31,0-32-.05s-21.49,0-32.24.06a.67.67,0,0,0-.64.48c-.08.33-.14.66-.21,1,0,0,0,.05-.06.07s0,0-.06-.07c-.07-.33-.13-.66-.2-1a.67.67,0,0,0-.64-.48c-10.75-.09-21.49-.09-32.24-.06s-21.31-.08-32,.05c-5.42.06-10.84,0-16.26,0s-10.67-.15-16,0c-10.46.33-20.91-.33-31.35.6-5.86.52-33.7-.15-34.18-.14-6.52.09-13,.11-19.56.23h0c-.32-.6-1.29-.74-1.47.1-1.91,8.78-3.35,17.68-4.93,26.53s-3.2,17.72-4.78,26.58c-3.16,17.68-6.25,35.37-9.41,53.05q-9.51,53.13-18.89,106.29-5.25,29.91-10.28,59.86a.41.41,0,0,0,.07.33.28.28,0,0,0,0,.2c.24.49,1.12.48,1.59.51L180,542c1.46.09,2.92.23,4.38.23,0,0,.07,0,.11,0a.08.08,0,0,0,.13,0h0a.31.31,0,0,0,.08-.29c2.37-8.6,3.95-17.48,5.74-26.22q2.76-13.44,5.54-26.88,5.52-26.74,11.19-53.47t11.67-53.36q6-26.62,12.63-53.12c2.17-8.79,4.18-17.62,6.5-26.38q1.74-6.64,3.42-13.3c8,.25,16,.16,24,.17,11.48,0,23,.26,34.43.09s23.14.17,34.7.09,22.95,0,34.43,0c13,0,26.07.27,39.11.05a.77.77,0,0,0,.36-.12.85.85,0,0,0,.37.12c13,.22,26.07-.06,39.11-.05,11.47,0,22.95-.12,34.43,0s23.13-.26,34.7-.09,23-.08,34.42-.09c8,0,16,.08,24-.17,1.12,4.44,2.25,8.87,3.42,13.3,2.31,8.76,4.33,17.59,6.5,26.38q6.55,26.5,12.63,53.12t11.67,53.36q5.65,26.73,11.19,53.47,2.78,13.44,5.53,26.88c1.8,8.74,3.38,17.62,5.75,26.22a.33.33,0,0,0,.07.29h0a.08.08,0,0,0,.13,0s.06,0,.11,0c1.46,0,2.92-.14,4.38-.23l2.15-.13c.47,0,1.35,0,1.59-.51a.28.28,0,0,0,0-.2.45.45,0,0,0,.07-.33Q635.64,510.82,630.34,480.92Z"/><path class="cls-12" d="M667.62,256.57c-16.92-.59-33.87-.37-50.8-.38l-50.8,0q-50.81,0-101.6,0c-67.39-.05-134.78-.2-202.16,0-38,.12-76-.82-114,0-.36,0-.47,14.75,0,14.76,33.85.73,67.75.29,101.6.26s67.74.07,101.6,0q101.08-.14,202.17,0l57,0c19,0,38,.27,57-.39a.29.29,0,0,0,.21-.09S667.83,256.58,667.62,256.57Z"/><path class="cls-4" d="M469.35,246.72a17.37,17.37,0,1,0-20.72,13.19A17.38,17.38,0,0,0,469.35,246.72Z"/><path class="cls-4" d="M437,248.59s-6.66,1.6-5.38-7.43,7.25-17.61,24.57-15.17Z"/><rect class="cls-13" x="390.59" y="250.63" width="164.38" height="11.62" rx="5.81"/><path class="cls-11" d="M536.64,262.25H450.55a7.79,7.79,0,0,1-7.45-10.07l16.66-54.55a12.36,12.36,0,0,1,11.82-8.75h89.08A7.79,7.79,0,0,1,568.11,199l-15.79,51.68A16.39,16.39,0,0,1,536.64,262.25Z"/><path class="cls-13" d="M546.16,262.25H460.07a7.79,7.79,0,0,1-7.45-10.07l16.66-54.55a12.36,12.36,0,0,1,11.82-8.75h89.08A7.8,7.8,0,0,1,577.63,199l-15.79,51.68A16.39,16.39,0,0,1,546.16,262.25Z"/><path class="cls-11" d="M517.58,213.59a12,12,0,1,0,12,12A12,12,0,0,1,517.58,213.59Z"/><path class="cls-8" d="M312.25,312.42s64.84-39.8,125.44-13.37,39.09,36.2,39.09,36.2-76.82,25-88,26.21C375.59,360.67,312.25,334.42,312.25,312.42Z"/><path class="cls-2" d="M311.88,336.74a.83.83,0,0,0,.57-.44.85.85,0,0,0-.35-1.15c-19.91-10.67-33.14-38.48-33.28-38.76a.84.84,0,0,0-1.13-.41.85.85,0,0,0-.41,1.13c.13.29,13.59,28.6,34,39.54A.87.87,0,0,0,311.88,336.74Z"/><path class="cls-6" d="M699.35,299.88c12.43,25,32.93,40.12,45.8,33.73s13.22-31.86.8-56.87S713,236.62,700.15,243,686.92,274.87,699.35,299.88Z"/><path class="cls-6" d="M832.1,298.08c-24.34,13.71-38.36,35-31.31,47.49s32.5,11.56,56.84-2.15,38.36-35,31.31-47.48S856.45,284.38,832.1,298.08Z"/><path class="cls-6" d="M719,327.06c-22.31-16.81-47.41-21.14-56-9.66s2.42,34.4,24.73,51.21,47.4,21.15,56,9.67S741.31,343.88,719,327.06Z"/><path class="cls-11" d="M769.8,414.48a.77.77,0,0,0,.75-.59c13.57-58.21,64.34-91.24,64.85-91.57a.77.77,0,0,0,.24-1.06.79.79,0,0,0-1.07-.24c-.52.33-51.81,33.69-65.52,92.52a.76.76,0,0,0,.57.92A.55.55,0,0,0,769.8,414.48Z"/><path class="cls-11" d="M773.23,437.92a.77.77,0,0,0,.77-.67c7.28-57-52.26-159.51-52.86-160.53a.77.77,0,1,0-1.33.78c.6,1,59.87,103.06,52.66,159.55a.77.77,0,0,0,.67.87Z"/><path class="cls-11" d="M767.25,410.29a.79.79,0,0,0,.77-.87c-.06-.43-6.45-42.76-74.88-74.17a.77.77,0,1,0-.64,1.4c67.59,31,73.93,72.56,74,73A.77.77,0,0,0,767.25,410.29Z"/><path class="cls-7" d="M816.47,407.85h-88a5.86,5.86,0,0,0-6,6.26l8.81,83.9a5.94,5.94,0,0,0,6,5.14h70.34a5.94,5.94,0,0,0,6-5.14l8.81-83.9A5.85,5.85,0,0,0,816.47,407.85Z"/><rect class="cls-8" x="338.41" y="84.07" width="27.68" height="44.46" rx="5.81" transform="translate(16.11 255.93) rotate(-40.79)"/><path class="cls-2" d="M355.22,125.42l-21.45-24.87a5.82,5.82,0,0,1,.6-8.19l-2.72,2.35a5.8,5.8,0,0,0-.6,8.19l21.45,24.87a5.8,5.8,0,0,0,8.19.6l2.73-2.35A5.81,5.81,0,0,1,355.22,125.42Z"/><circle class="cls-7" cx="348.9" cy="89.34" r="1.98"/><path class="cls-11" d="M348,97.93a4.29,4.29,0,1,0,6.05.45A4.28,4.28,0,0,1,348,97.93Z"/><polygon class="cls-2" points="248.25 268.62 195.5 268.62 218.15 257.05 270.9 257.05 248.25 268.62"/><path class="cls-4" d="M374.36,120.2a17.38,17.38,0,1,1-15.45-19.11A17.37,17.37,0,0,1,374.36,120.2Z"/><path class="cls-4" d="M344.26,108.11s-5.81-3.64-7.47,5.33,1.27,19,18.46,22.2Z"/><path class="cls-5" d="M358.91,101.09a17.34,17.34,0,0,0-15.53,6.62c-1.68-.62-5.33-1.07-6.59,5.73-1.51,8.19.8,17.27,14.3,21.22a17.68,17.68,0,0,0,4.16,1,17.38,17.38,0,0,0,3.66-34.56Z"/><path class="cls-7" d="M354.74,157.68l8-23.9s-11.07-9.74-22.16-5.43l-9,26.84Z"/><path class="cls-2" d="M337.77,212.8c11.54-20,21.68-41.55,21.94-55.12.08-3.9-3.55-7.22-5.87-9.08-4.64-3.74-16.73-12.15-30.29-.6-10.67,9.14-19.71,29.17-25.24,44l-.64,1.64C310.56,199.53,324.63,207.71,337.77,212.8Z"/><path class="cls-5" d="M337.77,141.17c-21.78,4.55-33.17,30.77-39.35,49.62-3.24,9.89-4.86,18,2.2,26.78,8.31,10.33,21,9.65,31,2"/><path class="cls-5" d="M331.59,219.56c10.2-7.88,36.35-53,25.18-72"/><path class="cls-5" d="M313.72,224.6S307,245.2,309,256.44"/><path class="cls-4" d="M246.72,266.24a17.37,17.37,0,1,0-20.15-14.05A17.3,17.3,0,0,0,246.72,266.24Z"/><path class="cls-4" d="M503.48,90.75A17.37,17.37,0,1,1,488,71.64,17.38,17.38,0,0,1,503.48,90.75Z"/><path class="cls-4" d="M473.38,78.66S467.58,75,465.92,84s1.27,19,18.45,22.21Z"/><path class="cls-7" d="M483.87,128.23l8-23.89s-11.07-9.75-22.16-5.44l-9,26.84Z"/><path class="cls-2" d="M466.9,183.35c11.54-20,21.68-41.55,21.94-55.12.07-3.9-3.56-7.22-5.87-9.08-4.64-3.74-16.73-12.15-30.3-.6-10.67,9.14-19.7,29.17-25.23,44l-.65,1.64C439.68,170.08,453.76,178.26,466.9,183.35Z"/><path class="cls-5" d="M466.9,111.72c-16.66,3.48-27.24,19.64-34.06,35.48"/><path class="cls-5" d="M460.71,190.11c10.21-7.88,36.36-53,25.18-72"/><path class="cls-7" d="M249.1,255.7l-2.51,7.46-5.85-5.61-9-40.85a4.29,4.29,0,0,1,3.25-5.11h0a4.29,4.29,0,0,1,5.11,3.26Z"/><path class="cls-4" d="M233.55,242.68s-4-5.54,4.78-7.82c6.62-1.71,14-.9,19.17,6.75,1.72,2.55-1-2.69.12,1.54a8,8,0,0,1-10,4Z"/><path class="cls-8" d="M479.47,97.7h19.28a1.89,1.89,0,0,0,1.87-1.63l4.52-32.47a1.89,1.89,0,0,0-1.87-2.15H475a1.89,1.89,0,0,0-1.87,2.14l4.45,32.48A1.89,1.89,0,0,0,479.47,97.7Z"/><path class="cls-7" d="M474.63,63c0,1.07,6.5,3,14.52,3s14.51-1.88,14.51-3-6.5-.95-14.51-.95S474.63,61.89,474.63,63Z"/><path class="cls-8" d="M474.71,67.93l.7,4a6.7,6.7,0,1,0,2.28,13.21l.69,4a10.76,10.76,0,1,1-3.67-21.21Z"/><path class="cls-5" d="M247.67,247.19l-14.12-4.51s-4-5.54,4.78-7.82a18.12,18.12,0,0,1,12.59.8"/><path class="cls-4" d="M477.34,95.33l-4-16.67S467.58,75,465.92,84c-.8,4.37-.51,9,2,13C471.91,95.83,473.37,94.49,477.34,95.33Z"/><path class="cls-9" d="M472.46,78.3s4.28,2.09,4.64,12.83"/></g></g></svg>