<?xml version="1.0" encoding="UTF-8"?> <svg xmlns="http://www.w3.org/2000/svg" width="181" height="51" viewBox="0 0 181 51" fill="none"> <rect x="0.5" y="0.5" width="180" height="50" rx="25" stroke="#23232F" stroke-opacity="0.36"></rect> <path fill-rule="evenodd" clip-rule="evenodd" d="M33.9995 9.08805C30.652 8.74177 27.2775 9.42216 24.3397 11.0357C21.402 12.6493 19.0452 15.1167 17.5934 18.099C16.1416 21.0813 15.666 24.4319 16.232 27.6904C16.798 30.9489 18.3778 33.9552 20.7542 36.2962C23.1307 38.6372 26.1871 40.1979 29.5035 40.7638C32.8198 41.3297 36.2332 40.873 39.2745 39.4565C42.3158 38.04 44.8357 35.7332 46.4879 32.8533C48.14 29.9733 48.8433 26.6615 48.501 23.3731C48.1244 19.7178 46.4767 16.3016 43.8354 13.6997C41.1941 11.0979 37.7205 9.46922 33.9995 9.08805ZM33.4716 33.4672C31.6712 33.7044 29.8404 33.3816 28.2364 32.5442C26.6325 31.7068 25.3361 30.3969 24.5294 28.7986C23.7227 27.2003 23.4463 25.3939 23.739 23.6333C24.0317 21.8728 24.8788 20.2465 26.1612 18.9832C27.4437 17.7198 29.097 16.8828 30.8889 16.5899C32.6807 16.297 34.521 16.5628 36.1511 17.35C37.7812 18.1372 39.1191 19.4062 39.9768 20.9787C40.8345 22.5511 41.169 24.348 40.9331 26.1168C40.6855 27.9773 39.8203 29.7057 38.4715 31.0345C37.1226 32.3632 35.3653 33.2183 33.4716 33.4672ZM57.2153 9.72103C56.6502 9.72236 56.0926 9.84738 55.5829 10.087C55.0732 10.3266 54.6243 10.6748 54.2689 11.1063C53.9135 11.5377 53.6605 12.0415 53.5283 12.5811C53.3962 13.1206 53.3882 13.6823 53.5049 14.2253C53.8624 15.9843 55.5355 17.1862 57.3581 17.1862H67.935L51.4749 38.5776C51.3532 38.7355 51.2786 38.9236 51.2596 39.1208C51.2407 39.318 51.278 39.5164 51.3674 39.694C51.4569 39.8715 51.5949 40.021 51.766 40.1259C51.9372 40.2307 52.1347 40.2866 52.3364 40.2874H78.1556C79.977 40.2874 81.6513 39.0858 82.0088 37.3264C82.1256 36.7835 82.1176 36.2219 81.9856 35.6824C81.8535 35.143 81.6007 34.6392 81.2454 34.2077C80.8902 33.7762 80.4415 33.4279 79.932 33.1881C79.4225 32.9484 78.8649 32.8231 78.2999 32.8215H65.4128L81.8602 11.4468C81.9832 11.2874 82.0584 11.0974 82.0775 10.8983C82.0967 10.6992 82.0589 10.4988 81.9685 10.3196C81.8782 10.1404 81.7387 9.98943 81.5658 9.8837C81.393 9.77797 81.1935 9.72164 80.9899 9.72103H57.2153ZM160.387 9.80714C159.533 10.0067 158.773 10.4869 158.234 11.1681C157.694 11.8493 157.408 12.6909 157.422 13.5536V25.983L136.913 9.95579C136.752 9.83042 136.559 9.75218 136.355 9.73007C136.151 9.70797 135.944 9.74289 135.759 9.83083C135.575 9.91877 135.419 10.0562 135.31 10.2272C135.201 10.3982 135.144 10.5959 135.144 10.7975V36.4614C135.131 37.3241 135.417 38.1657 135.956 38.847C136.495 39.5282 137.255 40.0083 138.11 40.2079C138.665 40.3278 139.241 40.3239 139.794 40.1963C140.347 40.0687 140.864 39.8208 141.307 39.4708C141.75 39.1208 142.107 38.6776 142.352 38.174C142.597 37.6704 142.724 37.1192 142.723 36.5611V24.0242L163.232 40.0517C163.393 40.177 163.586 40.2552 163.79 40.2773C163.994 40.2993 164.2 40.2644 164.385 40.1765C164.57 40.0886 164.726 39.9513 164.834 39.7804C164.943 39.6094 165.001 39.4118 165 39.2102V13.4527C165.001 12.8947 164.874 12.3437 164.629 11.8403C164.383 11.3369 164.026 10.8939 163.584 10.544C163.141 10.1942 162.624 9.94632 162.071 9.81878C161.518 9.69125 160.942 9.68727 160.387 9.80714ZM106.988 16.4717C115.663 16.4717 122.145 20.9735 122.145 25.0004C122.145 29.0273 115.663 33.5291 106.988 33.5291C98.3139 33.5291 91.8323 29.0273 91.8323 25.0004C91.8323 20.9735 98.3139 16.4717 106.988 16.4717ZM106.988 9.00677C94.4324 9.00677 84.2539 16.1674 84.2539 25.0004C84.2539 33.8334 94.4324 40.9941 106.988 40.9941C119.545 40.9941 129.723 33.8334 129.723 25.0004C129.723 16.1674 119.544 9.00677 106.988 9.00677Z" fill="#0069FF"></path> </svg> 