<svg xmlns="http://www.w3.org/2000/svg" xmlns:xlink="http://www.w3.org/1999/xlink" viewBox="0 0 851.74 589.41"><defs><style>.cls-1,.cls-6,.cls-8,.cls-9{fill:none;}.cls-2{isolation:isolate;}.cls-3{fill:#cadbe0;}.cls-4{fill:#f29e9b;}.cls-19,.cls-5{fill:#7097c4;}.cls-10,.cls-14,.cls-19,.cls-6,.cls-8{stroke:#4c2e3c;stroke-width:1.5px;}.cls-10,.cls-14,.cls-19,.cls-6,.cls-9{stroke-miterlimit:10;}.cls-7{fill:#4c2e3c;}.cls-8{stroke-linecap:round;stroke-linejoin:round;}.cls-9{stroke:#000;stroke-width:2.76px;opacity:0.09;}.cls-11,.cls-18,.cls-9{mix-blend-mode:soft-light;}.cls-10,.cls-15{fill:#9ebae1;}.cls-11,.cls-14{fill:#fff;}.cls-11{opacity:0.33;}.cls-12{fill:#f19d61;}.cls-13{fill:#ffbe83;}.cls-16{clip-path:url(#clip-path);}.cls-17{opacity:0.48;}.cls-18{fill:url(#Degradado_sin_nombre_153);}.cls-20{fill:#d2e4f9;}.cls-21{clip-path:url(#clip-path-2);}.cls-22{fill:url(#Degradado_sin_nombre_158);}.cls-23{fill:url(#Degradado_sin_nombre_158-2);}</style><clipPath id="clip-path"><path class="cls-1" d="M599.41,182.63c2.19-57.11-10.35-69.46-10.35-69.46s-14.56-9.86-69.86,3.77c-58.76,14.48-92.91,54.47-116.22,82.37-30.31,36.27-78.35,118.5-98.17,187.21l37.63,30.32,37.28,30.68c63-33.41,133.52-97.17,162.76-134.22C565,284.8,597.08,243.24,599.41,182.63Z"/></clipPath><linearGradient id="Degradado_sin_nombre_153" x1="486.45" y1="304.75" x2="525.82" y2="387.19" gradientTransform="translate(683.67 -232.11) rotate(82.28)" gradientUnits="userSpaceOnUse"><stop offset="0" stop-color="#1d262d"/><stop offset="0.68" stop-color="#1d262d" stop-opacity="0.32"/><stop offset="1" stop-color="#1d262d" stop-opacity="0"/></linearGradient><clipPath id="clip-path-2"><circle class="cls-1" cx="469.84" cy="274.62" r="46.29" transform="translate(-26.05 50.43) rotate(-5.98)"/></clipPath><linearGradient id="Degradado_sin_nombre_158" x1="518.56" y1="240.06" x2="420.86" y2="304.76" gradientTransform="translate(145.63 -169.59) rotate(23.83)" gradientUnits="userSpaceOnUse"><stop offset="0" stop-color="#f9fbfc"/><stop offset="1" stop-color="#f9fbfc" stop-opacity="0"/></linearGradient><linearGradient id="Degradado_sin_nombre_158-2" x1="531.08" y1="258.97" x2="433.38" y2="323.67" gradientTransform="translate(157.19 -172.09) rotate(23.83)" xlink:href="#Degradado_sin_nombre_158"/></defs><g class="cls-2"><g id="Layer_2" data-name="Layer 2"><g id="Layer_1-2" data-name="Layer 1"><path class="cls-3" d="M5.42,329C-3.42,253.52-9.19,166.21,52.9,83.13,72.41,57,94.33,30.74,119.78,17.66,152.12,1,184.31-2.29,214.92,1.31,271.67,8,326.07,30.71,377.47,65.19c38,25.77,76.82,56.54,124.17,68.35,81.54,19.67,179.07-17,261,7.52,42.44,11.25,70.3,40,81.82,72.47,11.12,31.29,8.22,65.5.28,98-17.82,72.91-57.25,143.83-113.21,202.17-25.2,26.27-67.57,43-110.1,43l-440.9-.46c-43,0-83.85-18.3-104.22-47.91l-.3-.45C42.73,456.19,13.09,394.48,5.42,329Z"/><path class="cls-4" d="M377.87,147.5l-27.81,70.13a18.16,18.16,0,0,0,6.88,21.68h0a17.08,17.08,0,0,0,24.83-6.2l34.43-66.54Z"/><path class="cls-5" d="M461.62,140.38c-1.2-.3-30.26-9.58-30.3-9.6-9.76-3.11-24.73-7.32-34.9-3.54-10.59,3.92-26.15,31.44-40.1,50l34.84,18-11.14,48Z"/><line class="cls-6" x1="391.16" y1="195.28" x2="406.12" y2="157.18"/><path class="cls-7" d="M449.31,87.48a9.73,9.73,0,1,1-6.45-12.15A9.73,9.73,0,0,1,449.31,87.48Z"/><path class="cls-4" d="M446.43,102.42l-10.63,33c-2.93,9.3,3.26,12,12.44,14.78h0c7.83,2.4,15.24,2.15,18.6-5.33l12.7-35.31Z"/><polygon class="cls-7" points="437.8 129.2 468.44 118.17 443.86 110.31 437.8 129.2"/><path class="cls-4" d="M457.88,120.41l-13-4a18.07,18.07,0,0,1-11.81-23.14l8.12-23.73a23.74,23.74,0,0,1,29.41-15h0c12.53,3.84,21.78,17.79,17.94,30.33l-9,24.72A17.56,17.56,0,0,1,457.88,120.41Z"/><path class="cls-7" d="M485.75,77.67c-.09-.9-.16-1.78-.19-2.64L484,73.69c.26.22.56.47.92.79-.7-.6-1.42-1.19-2.14-1.76-1.47-1.16-.75-4.68-2.25-5.79-.22-.12-2.72,2.34-2.89,2.24-.58-.23-1.16-.48-1.76-.69-4.31-1.62,1.16-9-3.25-10.29-2.21-.67-14.27,4.55-16.52,4L455,61.94c-.36.22-.72.43-1.08.61a20.14,20.14,0,0,1-6.18,2c4.25,2.17,10,3.38,16,3.81C476.71,69.25,482,74,482,74,461.46,85.14,481,97.5,481,97.5c3.13,3.34,7.23,1.28,10.74-2.79A38.94,38.94,0,0,1,485.75,77.67Z"/><path class="cls-4" d="M495.5,102.15A9.73,9.73,0,1,1,489.05,90,9.73,9.73,0,0,1,495.5,102.15Z"/><path class="cls-8" d="M482.1,101.07s2.06-6.74,8.19-3.71"/><polyline class="cls-8" points="447.25 89.81 445.25 94.51 448.23 95.42"/><path class="cls-7" d="M444.86,85a2,2,0,1,1-1.35-2.54A2,2,0,0,1,444.86,85Z"/><path class="cls-7" d="M460.61,89.81a2,2,0,1,1-1.36-2.54A2,2,0,0,1,460.61,89.81Z"/><path class="cls-7" d="M464,78.24s-4.28-3.14-5.69-.71c0,0-.93,1.67,2.86,4.31s5,2.85,6.28,1.5S466.15,79.5,464,78.24Z"/><path class="cls-7" d="M444.69,72.35s4.3-.83,4.85,1.79c0,0,.33,1.77-3.44,2.39s-5.06,0-5.52-1.38C440.05,73.54,442.63,72.5,444.69,72.35Z"/><path class="cls-4" d="M432.54,130.94,474.2,145s-9.2,17.82-34.51,7.41a27.13,27.13,0,0,1-9-5.66C426.81,142.89,424,137.17,432.54,130.94Z"/><ellipse class="cls-7" cx="447.71" cy="55.54" rx="11.07" ry="9.02" transform="translate(-1.76 94.37) rotate(-12.01)"/><ellipse class="cls-7" cx="460.59" cy="55.7" rx="12.57" ry="11.07" transform="translate(-1.51 97.05) rotate(-12.01)"/><ellipse class="cls-7" cx="479.83" cy="58.37" rx="11.07" ry="13.75" transform="translate(347.35 523.23) rotate(-81.03)"/><ellipse class="cls-7" cx="490.41" cy="79.49" rx="10.59" ry="12.44" transform="translate(335.42 551.5) rotate(-81.03)"/><ellipse class="cls-7" cx="492.35" cy="67.21" rx="7.33" ry="12.57" transform="translate(349.18 543.06) rotate(-81.03)"/><path class="cls-7" d="M500.52,72.53c-.63,4-6.7,6.37-13.55,5.29s-8.24-6.64-7.61-10.64,3-4.93,9.89-3.84S501.15,68.54,500.52,72.53Z"/><path class="cls-5" d="M483.8,277.46h0A29.16,29.16,0,0,1,513,306.62v121.5a0,0,0,0,1,0,0H454.64a0,0,0,0,1,0,0V306.62A29.16,29.16,0,0,1,483.8,277.46Z" transform="translate(158.69 -150.03) rotate(21.01)"/><path class="cls-7" d="M444.6,102.85a1.57,1.57,0,1,1-.61-2.14A1.57,1.57,0,0,1,444.6,102.85Z"/><line class="cls-9" x1="317.08" y1="395.16" x2="383.44" y2="448.88"/><line class="cls-9" x1="327.5" y1="345.85" x2="429.86" y2="428.73"/><path class="cls-10" d="M396.29,351.23s-6-7.54-51.22,48S261.81,507.6,266.2,511.15s48.28-44.43,93.5-100S396.29,351.23,396.29,351.23Z"/><polygon class="cls-11" points="319.63 397.16 313.9 404.02 311.46 402.07 317.08 395.16 319.63 397.16"/><path class="cls-12" d="M309.06,459.44s-88.85-24.08-98.89,61.28L228,515.33s-18.88,26.63-21.8,74.08c45.42-13.67,67-38.14,67-38.14L272,569.89C352.5,540.7,309.06,459.44,309.06,459.44Z"/><path class="cls-13" d="M309.06,459.44s-55.36-15-61.53,38.13l11.08-3.34s-11.71,16.54-13.48,46c28.2-8.43,41.6-23.62,41.6-23.62L286,528.19C336.14,510.1,309.06,459.44,309.06,459.44Z"/><polygon class="cls-10" points="368.74 449.52 304.75 397.42 319.06 379.88 382.96 431.92 368.74 449.52"/><path class="cls-14" d="M339.08,301.5s-54.12.74-74,24.83c-21.49,26.1-38.38,57.3-50.23,100.95-6.35,23.37,14-2.07,27.67-17.16,23.81-26.34,36.77-27,62.26-23.6C304.81,386.52,315.36,357.91,339.08,301.5Z"/><path class="cls-14" d="M455.75,396.64s10.22,53.12-9.26,77.44c-21.09,26.33-48.09,49.22-88.28,69.74-21.52,11-.83-14.13,11.12-30.56,20.88-28.67,18.92-41.49,10.39-65.74C379.72,447.52,405.51,431.35,455.75,396.64Z"/><path class="cls-14" d="M599.41,182.63c2.19-57.11-10.35-69.46-10.35-69.46s-14.56-9.86-69.86,3.77c-58.76,14.48-92.91,54.47-116.22,82.37-30.31,36.27-78.35,118.5-98.17,187.21l37.63,30.32,37.28,30.68c63-33.41,133.52-97.17,162.76-134.22C565,284.8,597.08,243.24,599.41,182.63Z"/><path class="cls-10" d="M304.81,386.52l37.63,30.32,37.28,30.68a424.14,424.14,0,0,0,38.87-23.61L320,343.55A427.5,427.5,0,0,0,304.81,386.52Z"/><path class="cls-15" d="M589.06,113.17s-14.56-9.86-69.86,3.77a174.88,174.88,0,0,0-47.44,19.4L590,233.12a176.64,176.64,0,0,0,9.4-50.49C601.6,125.52,589.06,113.17,589.06,113.17Z"/><g class="cls-16"><polygon class="cls-15" points="593.05 255.9 450.69 140.57 455.51 134.6 597.81 249.89 593.05 255.9"/><polygon class="cls-15" points="586.38 266.84 443.9 151.44 447.12 147.46 589.55 262.82 586.38 266.84"/></g><path class="cls-11" d="M374.18,529.54c13.65-16.34,17.9-31.22,18.61-34.06a25.25,25.25,0,0,1-1.49,3.76c-2.75,6.53-7.08,13.76-13.43,22.36-8.08,11-19.92,25.65-21.27,31.61-.23,1.26,0,2,.63,2.47h0S359,547.66,374.18,529.54Z"/><path class="cls-5" d="M484,433.57l17.81-46.34c-.41-.27-.74-.48-.86-.54l-.73-.41-.37-.18c-1-.32-2.33-.75-2.57-.81s-1.14-.41-1.95-.65l-.11,0c-.53-.06-1.06-.11-1.6-.14a68.08,68.08,0,0,0-8.08-.09c-1.36.07-2.72.2-4.08.29l-.57,0-.19,0c-2.67.46-5.33.95-8,1.52q-3,.63-5.89,1.33c-10.92,9-22.34,17.92-34,26.32Z"/><path class="cls-5" d="M355.81,241c-9.07,12.69-21.27,34.74-33.24,71.88,0,0,4.39,50.57,36.79-9.28,4.19-18.82,10.18-38.19,11.59-57.3l-8.75-.93A19.2,19.2,0,0,1,355.81,241Z"/><path class="cls-4" d="M379.83,211.21c30.13,18.69,8.9,15.46,8.9,15.46l-6.22,20.84-20.31-2.16a19.27,19.27,0,0,1-8.39-28.69h0A19.27,19.27,0,0,1,379.83,211.21Z"/><path class="cls-4" d="M388.6,253.35a17.78,17.78,0,1,1,24.42-6A17.78,17.78,0,0,1,388.6,253.35Z"/><path class="cls-4" d="M415,233.48s6.06-5.39-1.53-10.82-20.38-8.26-30.82,6.27Z"/><polygon class="cls-4" points="319.25 437.34 296.8 429.53 317.11 378.95 340.91 387.23 319.25 437.34"/><path class="cls-5" d="M292.92,420.45l36.34,12.64L323.41,449s28.25,11.31,18,38l-66.67-23.18Z"/><rect class="cls-7" x="272.12" y="467.29" width="74.14" height="8.24" transform="translate(172.03 -75.41) rotate(19.18)"/><path class="cls-6" d="M325.06,449.82s-9.77-5.65-19.14-4.31"/><path class="cls-5" d="M352.12,417.54l-54.44-20.91,40.71-105.95,2.86-7.47a29.17,29.17,0,0,1,37.68-16.77h0a29.17,29.17,0,0,1,16.77,37.68Z"/><path class="cls-6" d="M325.06,328.31l17-45.32a30.37,30.37,0,0,1,11.08-14.43,18.81,18.81,0,0,1,10.77-3.69"/><polygon class="cls-4" points="456.09 453.65 433.64 445.84 442.76 417.88 466.56 426.36 456.09 453.65"/><path class="cls-5" d="M429.76,436.76,466.1,449.4l-5.85,15.89s28.25,11.32,18,38l-66.66-23.19Z"/><rect class="cls-7" x="408.97" y="483.6" width="74.14" height="8.24" transform="translate(184.99 -119.47) rotate(19.18)"/><path class="cls-6" d="M461.9,466.13s-9.76-5.65-19.14-4.31"/><circle class="cls-18" cx="470.41" cy="275.52" r="62.86" transform="translate(178.48 735.92) rotate(-87.98)"/><circle class="cls-19" cx="470.59" cy="274.37" r="61.75" transform="translate(-25.64 49.66) rotate(-5.88)"/><circle class="cls-15" cx="469.4" cy="273.72" r="48.25" transform="translate(-26.17 50.85) rotate(-6.03)"/><circle class="cls-20" cx="469.84" cy="274.62" r="46.29" transform="translate(-26.05 50.43) rotate(-5.98)"/><g class="cls-21"><rect class="cls-22" x="408.24" y="260.41" width="112.19" height="18.21" transform="translate(-72.52 263.83) rotate(-29.53)"/><rect class="cls-23" x="418.76" y="285.62" width="112.19" height="9.16" transform="translate(-81.35 271.7) rotate(-29.53)"/></g><line class="cls-6" x1="330.39" y1="417.54" x2="344.5" y2="429.79"/><path class="cls-6" d="M575.92,264.87c12.36-22.52,22.23-49.62,23.49-82.24,2.19-57.11-10.35-69.46-10.35-69.46s-14.56-9.86-69.86,3.77c-34.1,8.4-59.9,25.39-80.11,43.62"/><path class="cls-4" d="M581.14,195.86a17.78,17.78,0,1,0-14.5-20.54A17.77,17.77,0,0,0,581.14,195.86Z"/><path class="cls-4" d="M574.29,163.57s-1-8,8.24-7.16,20.8,7.14,19.15,25Z"/><path class="cls-6" d="M432.87,413.92s29-22,38.89-30.44"/></g></g></g></svg>