<svg xmlns="http://www.w3.org/2000/svg" viewBox="0 0 971.64 651.76"><defs><style>.cls-1{fill:#cadbe0;}.cls-2{fill:#f19d61;}.cls-11,.cls-13,.cls-2,.cls-3,.cls-4,.cls-5,.cls-6,.cls-7{stroke:#4c2e3c;stroke-miterlimit:10;stroke-width:1.5px;}.cls-3{fill:#ffbe83;}.cls-4,.cls-9{fill:#fff;}.cls-5{fill:#fc00ea;}.cls-6{fill:#1a5cff;}.cls-7{fill:#fbd00a;}.cls-13,.cls-8{fill:#f29e9b;}.cls-10{fill:#9ebae1;}.cls-11{fill:none;}.cls-12{fill:#94a6c6;}.cls-14{fill:#4c2e3c;}</style></defs><g id="Layer_2" data-name="Layer 2"><g id="Layer_1-2" data-name="Layer 1"><path class="cls-1" d="M966.38,354.69c20.38-111.77-17.65-256-128.72-306.46-83.67-38-184.08-25.48-271.5-9.62C465.61,56.85,365.91,74.91,264.7,90.29c-45.6,6.93-91.72,14-134.37,31.58C31.45,162.65-5.06,257.82.56,359.72c.64,80.54,55.55,279.94,187.8,279.94,284.39,0,284.39.81,568.19-4.77,41.42-.82,85.72,5,124.22-1.21,36.46-5.91,33.76-37.43,40.64-63.55,6.22-23.36,12.14-47.28,17.08-71.28C948.38,450.85,957.45,402.78,966.38,354.69Z"/><rect class="cls-2" x="544.74" y="422.87" width="205.22" height="165.87"/><rect class="cls-3" x="544.74" y="422.87" width="165.87" height="165.87"/><line class="cls-4" x1="729.81" y1="422.87" x2="729.81" y2="588.73"/><rect class="cls-5" x="593.82" y="422.87" width="72.7" height="28.65" transform="translate(1260.35 874.39) rotate(-180)"/><rect class="cls-5" x="593.82" y="560.08" width="72.7" height="28.65" transform="translate(1260.35 1148.82) rotate(-180)"/><rect class="cls-2" x="183.45" y="265.56" width="614.12" height="14.81"/><rect class="cls-2" x="183.45" y="588.73" width="614.12" height="14.81"/><rect class="cls-2" x="-100.52" y="359.64" width="553.14" height="14.81" transform="translate(543.09 191) rotate(90)"/><rect class="cls-2" x="521" y="359.64" width="553.14" height="14.81" transform="translate(1164.61 -430.52) rotate(90)"/><rect class="cls-2" x="276.75" y="98.73" width="205.22" height="165.87" transform="translate(758.72 363.32) rotate(-180)"/><rect class="cls-3" x="316.1" y="98.73" width="165.87" height="165.87" transform="translate(798.07 363.32) rotate(-180)"/><line class="cls-4" x1="296.9" y1="98.73" x2="296.9" y2="264.59"/><rect class="cls-5" x="360.18" y="98.73" width="72.7" height="28.65"/><rect class="cls-5" x="360.18" y="235.94" width="72.7" height="28.65"/><rect class="cls-2" x="406.91" y="0.93" width="120.71" height="97.57" transform="translate(0.15 -1.37) rotate(0.17)"/><rect class="cls-3" x="406.91" y="0.89" width="97.57" height="97.57" transform="translate(0.15 -1.34) rotate(0.17)"/><line class="cls-4" x1="515.91" y1="1.07" x2="515.63" y2="98.64"/><rect class="cls-6" x="435.9" y="0.9" width="42.76" height="16.85" transform="translate(914.54 19.99) rotate(-179.83)"/><rect class="cls-6" x="435.67" y="81.61" width="42.76" height="16.85" transform="translate(913.83 181.42) rotate(-179.83)"/><rect class="cls-2" x="205.32" y="364.32" width="278.04" height="224.72" transform="translate(690.08 952.36) rotate(179.83)"/><rect class="cls-3" x="258.64" y="364.24" width="224.72" height="224.72" transform="translate(743.39 952.12) rotate(179.83)"/><line class="cls-4" x1="232.29" y1="364.65" x2="232.94" y2="589.37"/><rect class="cls-6" x="318.08" y="364.25" width="98.5" height="38.82" transform="translate(-1.12 1.08) rotate(-0.17)"/><rect class="cls-6" x="318.63" y="550.16" width="98.5" height="38.82" transform="translate(-1.67 1.08) rotate(-0.17)"/><rect class="cls-2" x="515.45" y="99.03" width="204.47" height="165.27"/><rect class="cls-3" x="515.45" y="99.04" width="165.27" height="165.27"/><line class="cls-4" x1="699.8" y1="98.98" x2="699.9" y2="264.25"/><rect class="cls-7" x="564.32" y="99.04" width="72.44" height="28.55" transform="translate(1201.14 226.29) rotate(179.97)"/><rect class="cls-7" x="564.4" y="235.76" width="72.44" height="28.55" transform="translate(1201.37 499.72) rotate(179.97)"/><rect class="cls-2" x="553.86" y="45.98" width="65.58" height="53" transform="translate(1173.29 144.96) rotate(-180)"/><rect class="cls-3" x="566.43" y="45.98" width="53" height="53" transform="translate(1185.86 144.96) rotate(-180)"/><line class="cls-4" x1="560.29" y1="45.98" x2="560.29" y2="98.98"/><rect class="cls-5" x="580.52" y="45.98" width="23.23" height="9.16"/><rect class="cls-5" x="580.52" y="89.83" width="23.23" height="9.16"/><path class="cls-8" d="M648.43,310.68c-20.43-26.91-55.25-73.47-55.25-73.47L574,245l46,78.37c-1.09-4.41-2-1.88.85-4.74a12,12,0,0,1,2.39-1.84,6.3,6.3,0,0,0,2.27-1C631,312.86,635,301.86,640,304.86,649,311.86,654.36,318.48,648.43,310.68Z"/><circle class="cls-8" cx="578.61" cy="235.13" r="16.94" transform="translate(155.87 694.87) rotate(-69.52)"/><path class="cls-8" d="M581.49,218.45s4.57-6.23,10.4.47,9.67,18.6-3.17,29.81Z"/><path class="cls-9" d="M662.08,301.47,679,229.37c.28-1.2.52-2.24.73-3.09a27.66,27.66,0,0,0,1.8-12.51c.51-7.91,1.33-19-5-19.66-12.7-1.36-33.53.75-38.29,14.69-.21.82-.46,1.83-.76,3l-17.53,69.38C634.73,286.27,648.15,294.46,662.08,301.47Z"/><path class="cls-9" d="M653.69,305.24l-37.56-68-43.68,18.6L608,318.44c12.39,21.8,46.15,13,45.7-12C653.73,306,653.72,305.63,653.69,305.24Z"/><polygon class="cls-8" points="645.9 590.8 650.51 616.34 674.32 616.34 669.8 589.45 645.9 590.8"/><path class="cls-10" d="M639.81,615h37.33l7.67,36.63h-62a5.48,5.48,0,0,1-2.71-10.24L641.91,629Z"/><line class="cls-11" x1="617.13" y1="645.18" x2="683.15" y2="645.18"/><polygon class="cls-10" points="649.23 327.44 627.31 595.93 677.63 595.93 725.73 327.44 649.23 327.44"/><polygon class="cls-8" points="706.77 545.5 732.24 550.52 740.92 528.35 714.23 522.75 706.77 545.5"/><path class="cls-11" d="M740.89,568.5s-21.75,4-18.22,18.36S743.9,584.14,740.89,568.5Z"/><path class="cls-11" d="M740.89,568.5s-13.22-17.73-.91-25.85S753.72,559.07,740.89,568.5Z"/><polygon class="cls-8" points="720.76 590.26 725.37 615.8 749.18 615.8 744.66 588.9 720.76 590.26"/><path class="cls-10" d="M721,615.13h37.33L766,651.76H704a5.47,5.47,0,0,1-2.71-10.23l21.82-12.44Z"/><line class="cls-11" x1="698.32" y1="645.3" x2="764.34" y2="645.3"/><polygon class="cls-10" points="734.97 326.89 758.08 595.38 707.76 595.38 659.66 326.89 734.97 326.89"/><path class="cls-9" d="M672.59,193.58l63.33,0c9.34,0,1.59,7.06,2.57,16.35l9.78,128.36L644.32,335.8l10.09-125.57A18.24,18.24,0,0,1,672.59,193.58Z"/><line class="cls-11" x1="644.32" y1="335.8" x2="651.97" y2="240.56"/><path class="cls-8" d="M772.61,205l-20.84-58.58-18.84,8.63s5.94,34.24,11.19,65.18A280.12,280.12,0,0,0,772.61,205Z"/><circle class="cls-8" cx="741.42" cy="143.03" r="16.94" transform="translate(321.35 770.49) rotate(-67.12)"/><path class="cls-8" d="M727.31,133.68s-7.66-1-6.79,7.88,6.88,19.8,23.84,18.16Z"/><path class="cls-9" d="M757.53,221.89,753,208.28a22.54,22.54,0,0,0-43,13.11l19.79,58.92.42-.17A46.82,46.82,0,0,0,757.53,221.89Z"/><path class="cls-9" d="M778.51,223.29l-14-62.87-44.26,6.13,23,104.66.45,0A39.48,39.48,0,0,0,778.51,223.29Z"/><line class="cls-12" x1="550.02" y1="295.14" x2="551.56" y2="296.7"/><path class="cls-13" d="M678.53,164l.66,32.54c.24,9.15,6.54,9.62,15.54,9.3h0c7.69-.26,14.19-2.74,14.88-10.4l.47-35.21Z"/><path class="cls-8" d="M694.17,176.47l-12.76.44A17,17,0,0,1,663.87,160l0-23.53a22.26,22.26,0,0,1,21.5-22.29h0c12.3-.43,24.76,9.12,25.19,21.41l-.43,24.67A16.48,16.48,0,0,1,694.17,176.47Z"/><path class="cls-14" d="M706.87,174.15a25.5,25.5,0,0,1-16,0,13.94,13.94,0,0,1-3.61-2,15.91,15.91,0,0,1-6.17-10.6,22.61,22.61,0,0,1-.25-3.87c.19-9.81,3.19-21.81-6.24-28.92a15.25,15.25,0,0,0-2.89-1.32,19.66,19.66,0,0,0-7.18-.92,8.29,8.29,0,0,1-1.8-2.12c-1-.89-2-1.81-2.93-2.76a68.09,68.09,0,0,1-12.32-16.36c3.25,6.08,15.45,4.84,21.06,4.83,10.75,0,21.89-2.2,32.39,1.19,14.79,4.79,19.58,18.91,18.46,33.16-.12,1.59-.32,3.17-.58,4.77-1.78,7.64-3.78,15.64-7.9,22.34A13.26,13.26,0,0,1,706.87,174.15Z"/><path class="cls-13" d="M674,140.08a9.13,9.13,0,0,1,.63,18.25"/><line class="cls-11" x1="695.06" y1="511.56" x2="718.49" y2="386.29"/><line class="cls-11" x1="748.27" y1="338.27" x2="742.31" y2="239.12"/><path class="cls-11" d="M709.61,193.38l16,.27c11.44-.44,22.11,6.91,27.45,17L766,235.13"/><polygon class="cls-9" points="722.54 214.25 672.14 214.25 679.01 190.16 708.87 190.16 722.54 214.25"/><path class="cls-11" d="M681.41,176.91A17,17,0,0,1,663.87,160l0-23.53a27.07,27.07,0,0,1,2.34-10"/></g></g></svg>