<?xml version="1.0" encoding="UTF-8"?> <svg xmlns="http://www.w3.org/2000/svg" width="86" height="51" viewBox="0 0 86 51" fill="none"> <rect x="0.5" y="0.5" width="85" height="50" rx="25" stroke="#23232F" stroke-opacity="0.36"></rect> <path d="M18.195 11.7703C20.6249 10.0163 23.7068 9.19192 26.6869 9.52613C30.0485 9.838 33.2131 11.6493 35.2645 14.3199C36.4313 24.3412 54.233 21.5794 58.8665 14.6509C63.3259 17.6304 65.9999 23.0545 65.4219 28.4214C57.833 33.2287 59.2618 33.3361 59.076 40.1257C58.0844 42.0134 56.2237 43.4458 54.0955 43.7415C52.1467 44.0727 50.1334 43.4138 48.6283 42.1596C46.4442 46.2722 41.3646 48.545 36.8514 47.3292C32.8951 46.3772 29.7178 42.9427 29.0435 38.9256C28.3496 35.7623 20.7173 31.625 15.304 29.0897C13.6376 26.7183 12.7946 23.7771 13.0427 20.8836C13.2972 17.2803 15.2499 13.8519 18.195 11.7703Z" fill="#7F1472"></path> <path d="M40.9957 6.61578C43.9375 4.89372 47.6237 4.52766 50.852 5.61628C54.8817 6.91497 58.0552 10.4928 58.8663 14.65C59.4712 17.4926 58.9781 20.5325 57.5439 23.0535C57.2699 21.8535 56.6372 20.6822 55.5618 20.0296C54.5315 19.3994 53.2821 19.3356 52.1079 19.3102C49.5897 19.3165 47.0704 19.307 44.5514 19.3165C44.5514 22.522 44.5514 25.7274 44.5514 28.936C43.2823 28.6304 42.0578 28.1624 40.9098 27.545C41.5777 24.8075 42.2105 22.0573 42.8974 19.3229C41.7621 19.307 40.6299 19.307 39.4978 19.326C39.0715 21.3252 38.6324 23.3177 38.1969 25.3136C35.4427 22.455 34.3484 18.1674 35.2646 14.319C36.0085 11.1072 38.1269 8.24239 40.9957 6.61578ZM64.6386 7.37016C66.986 6.52349 69.5879 8.94907 68.8821 11.3491C68.4083 13.711 65.1833 14.7424 63.4397 13.0712C61.478 11.5115 62.2214 8.02269 64.6386 7.37016ZM47.888 22.1812C49.5542 22.245 51.2495 22.0317 52.8996 22.2959C54.611 22.5474 54.7388 25.2276 53.1542 25.7497C51.4525 26.2558 49.6402 25.8897 47.8912 25.9947C47.8848 24.7246 47.8848 23.4515 47.888 22.1812ZM15.304 29.0888C16.6875 26.3958 20.0111 25.0556 22.8893 25.9502C23.6685 29.2543 24.4319 32.5615 25.224 35.8657C26.4356 35.8815 27.6474 35.8848 28.8591 35.8657C29.0592 35.1813 29.2567 34.4936 29.4316 33.803C29.8418 34.5479 30.4271 35.2895 30.3635 36.1936C30.4017 37.263 29.7051 38.1609 29.0436 38.9246C27.4786 40.3857 24.7595 39.5836 23.8403 37.7534C21.5058 38.8769 18.5228 38.5331 16.6334 36.7155C14.5406 34.8437 14.0033 31.5588 15.304 29.0888ZM57.531 28.6367C59.8107 26.972 63.0712 26.7874 65.4218 28.4205C67.3007 29.7126 68.4685 31.9918 68.3288 34.2836C68.2429 36.6169 66.8108 38.8292 64.7342 39.886C63.0078 40.7995 60.8764 40.8728 59.0769 40.1248C57.1711 39.313 55.6832 37.6163 55.1933 35.5951C57.9983 34.7738 59.2735 30.9891 57.531 28.6367Z" fill="#EF1A8A"></path> <path d="M47.888 28.9268C47.8848 30.2828 47.8815 31.642 47.888 33.0013C49.2996 33.0013 50.7113 33.0045 52.124 33.0045C53.049 33.0202 54.0803 32.791 54.6518 31.9984C55.0687 31.0117 54.8269 29.5315 53.6764 29.1877C51.8028 28.5988 49.8121 28.9427 47.888 28.9268ZM47.888 22.1815C47.8848 23.4518 47.8848 24.7249 47.8912 25.995C49.6402 25.89 51.4525 26.2562 53.1542 25.7501C54.7378 25.2279 54.611 22.5478 52.8996 22.2963C51.2495 22.032 49.5542 22.2453 47.888 22.1815ZM44.5512 19.3168C47.0704 19.3073 49.5886 19.3168 52.1079 19.3105C53.2821 19.3359 54.5315 19.3997 55.5618 20.0299C56.6371 20.6825 57.2699 21.8539 57.5439 23.0539C57.6201 24.7218 56.8466 26.3961 55.3394 27.1982C56.144 27.5517 56.9197 27.9877 57.531 28.637C59.2735 30.9895 57.9983 34.7741 55.1933 35.5954C51.6781 36.1429 48.0975 35.7483 44.5512 35.8627C44.5512 33.5549 44.5543 31.2442 44.5512 28.9363C44.5512 25.7277 44.5512 22.5223 44.5512 19.3168ZM21.3467 19.3168C22.4917 19.3105 23.6335 19.3137 24.7783 19.3137C25.58 23.0698 26.391 26.8259 27.2115 30.5756C28.207 26.8259 29.1452 23.0571 30.182 19.3168C31.5051 19.3105 32.8312 19.3073 34.1545 19.3232C35.1053 23.1557 36.085 26.9817 37.0104 30.8175C37.4078 28.984 37.8055 27.1505 38.1967 25.3139C38.6323 23.318 39.0714 21.3255 39.4975 19.3263C40.6297 19.3073 41.7619 19.3073 42.8973 19.3232C42.2104 22.0577 41.5775 24.8078 40.9096 27.5453C40.2258 30.3146 39.5929 33.0934 38.8997 35.8596C37.7165 35.8693 36.5365 35.8693 35.3534 35.8596C34.2339 31.7724 33.1716 27.6694 32.1094 23.5695C31.206 26.9786 30.3092 30.3877 29.4315 33.8033C29.2566 34.494 29.0591 35.1816 28.859 35.8661C27.6472 35.8851 26.4355 35.8819 25.2237 35.8661C24.4318 32.5618 23.6683 29.2547 22.8891 25.9505C22.3868 23.7351 21.8302 21.5355 21.3467 19.3168Z" fill="white"></path> </svg> 