<?xml version="1.0" encoding="UTF-8"?> <svg xmlns="http://www.w3.org/2000/svg" width="99" height="51" viewBox="0 0 99 51" fill="none"> <rect x="0.5" y="0.5" width="98" height="50" rx="25" stroke="#23232F" stroke-opacity="0.36"></rect> <path d="M28.8599 9.7647C24.0108 10.7266 19.7636 13.956 17.5282 18.3877C15.5851 22.2526 15.3616 26.9764 16.9092 31.202C17.8549 33.7958 19.884 36.5098 22.2225 38.279C28.4128 42.9856 37.1825 42.4875 42.8397 37.111C45.9177 34.1737 47.5857 30.5492 47.8092 26.2721C48.1875 18.8171 43.4588 12.2382 36.2195 10.1082C34.328 9.55857 30.7686 9.3868 28.8599 9.7647ZM37.5092 25.5506L37.5436 35.3074L35.8756 35.2558L34.1905 35.2043L34.1389 26.8046L34.1045 18.508H32.6773C30.9406 18.6282 30.1324 18.903 29.3758 19.6245C28.3613 20.6208 28.1893 22.5446 28.9803 24.2452C29.3758 25.0869 30.2871 25.9629 31.9035 27.0451C32.5397 27.4745 33.0728 27.8868 33.0728 27.9555C33.0728 28.0414 32.4709 29.0205 31.7487 30.137C31.0093 31.2707 29.9604 32.8854 29.4102 33.7442L28.4128 35.2902H26.5386C25.4896 35.2902 24.6471 35.2558 24.6471 35.2043C24.6471 35.1528 25.6272 33.6755 26.8137 31.9406L28.9631 28.7628L27.5875 27.4573C25.7476 25.7224 25.3005 24.812 25.1973 22.5446C25.0941 20.0539 25.7648 18.4564 27.4155 17.254C29.0147 16.1031 30.8546 15.7424 34.8783 15.7768L37.4576 15.7939L37.5092 25.5506Z" fill="#FC3F1D"></path> <path d="M82.8281 25.5C82.8281 34.302 75.6927 41.4375 66.8906 41.4375C58.0886 41.4375 50.9531 34.302 50.9531 25.5C50.9531 16.698 58.0886 9.5625 66.8906 9.5625C75.6927 9.5625 82.4297 16.7344 82.8281 25.5Z" fill="black"></path> <path d="M65.8213 9.59002C64.5996 9.66122 63.1512 9.93533 61.9506 10.3198C56.4544 12.0962 52.3252 16.7384 51.199 22.42C50.8166 24.3424 50.7882 26.2648 51.1105 28.2583C51.1424 28.4541 51.1778 28.625 51.1919 28.6428C51.2061 28.657 51.5673 28.2476 51.9958 27.735C52.4208 27.2224 52.9874 26.546 53.2495 26.2327C53.5151 25.9159 54.0321 25.2965 54.4004 24.855C58.0126 20.5297 59.6629 18.5575 59.6771 18.5575C59.6842 18.5575 60.0312 18.7533 60.4455 18.9954C60.8599 19.2374 61.5752 19.6504 62.0321 19.9174C64.4792 21.3342 64.2809 21.2132 64.2702 21.3236C64.2631 21.377 64.0755 22.6087 63.8559 24.0576C63.6328 25.5029 63.4557 26.692 63.4593 26.6955C63.4628 26.6991 63.8736 26.1152 64.3729 25.3961C64.8723 24.6806 66.3136 22.6123 67.5779 20.8003C68.8386 18.9883 70.326 16.8594 70.8784 16.0655C71.4309 15.2717 71.8948 14.6202 71.9125 14.6131C71.9408 14.6024 77.7487 16.7241 77.7806 16.7562C77.7912 16.7633 77.6531 17.5928 77.476 18.6002C76.6225 23.4489 76.41 24.702 76.4171 24.7447C76.4242 24.7731 77.0156 24.1964 77.7345 23.4631C78.4534 22.7333 79.615 21.5585 80.3126 20.8501L81.584 19.5685L81.4211 19.1805C80.6668 17.4076 79.4946 15.6811 78.0745 14.25C74.8306 10.9926 70.4428 9.32302 65.8213 9.59002Z" fill="#FED42B"></path> <path d="M70.3006 26.0571C69.9343 26.5804 69.2551 27.5522 68.7893 28.2179C67.3597 30.2541 64.5825 34.2196 63.4623 35.818C62.8792 36.6509 62.3991 37.3344 62.3955 37.3415C62.3884 37.3487 60.8096 36.7791 57.0331 35.4086C56.8019 35.3232 56.6064 35.2484 56.5992 35.2413C56.5886 35.2306 57.0437 33.4828 58.1283 29.3428C58.2955 28.7091 58.427 28.1823 58.4199 28.1787C58.4128 28.1716 58.0963 28.5382 57.7158 28.9903C55.7245 31.3754 55.1022 32.1194 54.2807 33.1054L53.3775 34.1805L53.5268 34.4047C55.1022 36.7471 57.3247 38.68 59.8352 39.8975C63.8855 41.8589 68.5617 42.0297 72.7435 40.3673C77.4304 38.5056 81.0006 34.4724 82.2879 29.5884C82.5297 28.6664 82.7288 27.4632 82.7715 26.6516C82.7822 26.4344 82.8 26.1568 82.8106 26.0286L82.8284 25.7972L78.3372 30.2897C75.8657 32.7637 73.8281 34.7856 73.8068 34.7856C73.7819 34.7856 73.4405 34.597 73.0422 34.3656C72.644 34.1342 71.8368 33.6643 71.25 33.3261C70.6633 32.988 70.0552 32.6355 69.8987 32.543C69.7423 32.4504 69.5005 32.308 69.3618 32.2297L69.1093 32.0838L69.3298 31.2543C69.4542 30.7987 69.7067 29.8482 69.8987 29.1434C70.0872 28.4386 70.3859 27.3244 70.5602 26.6694C70.7344 26.0144 70.9015 25.3985 70.93 25.3024C70.9584 25.2063 70.9798 25.1209 70.9726 25.1173C70.9691 25.1138 70.6668 25.5338 70.3006 26.0571Z" fill="#FED42B"></path> </svg> 